<svg id="Icon_ionic-ios-close-circle-outline" data-name="Icon ionic-ios-close-circle-outline" xmlns="http://www.w3.org/2000/svg" width="18" height="18" viewBox="0 0 18 18">
  <path id="Tracé_25" data-name="Tracé 25" d="M19.089,18.109l-2.28-2.28,2.28-2.28a.691.691,0,0,0-.978-.978l-2.28,2.28-2.28-2.28a.691.691,0,0,0-.978.978l2.28,2.28-2.28,2.28a.669.669,0,0,0,0,.978.687.687,0,0,0,.978,0l2.28-2.28,2.28,2.28a.7.7,0,0,0,.978,0A.687.687,0,0,0,19.089,18.109Z" transform="translate(-6.831 -6.829)" fill="#33333b"/>
  <path id="Tracé_26" data-name="Tracé 26" d="M12.375,4.587a7.785,7.785,0,1,1-5.508,2.28,7.737,7.737,0,0,1,5.508-2.28m0-1.212a9,9,0,1,0,9,9,9,9,0,0,0-9-9Z" transform="translate(-3.375 -3.375)" fill="#33333b"/>
</svg>
