<svg xmlns="http://www.w3.org/2000/svg" width="14" height="14.004" viewBox="0 0 14 14.004">
  <g id="Icon_ionic-ios-timer" data-name="Icon ionic-ios-timer" transform="translate(-3.938 -3.938)">
    <path id="Path_44" data-name="Path 44" d="M10.939,17.941A7,7,0,0,1,6.08,5.9a.562.562,0,0,1,.781.809A5.876,5.876,0,1,0,11.5,5.089V7.281a.564.564,0,1,1-1.127,0V4.5a.563.563,0,0,1,.564-.564,7,7,0,0,1,0,14Z" fill="#46525f"/>
    <path id="Path_45" data-name="Path 45" d="M11.808,11.317l3.483,2.5a1.054,1.054,0,1,1-1.225,1.715,1.018,1.018,0,0,1-.245-.245l-2.5-3.483a.351.351,0,0,1,.49-.49Z" transform="translate(-3.673 -3.672)" fill="#46525f"/>
  </g>
</svg>
