<?xml version="1.0" encoding="UTF-8" standalone="no"?>
<svg
   id="Groupe_4172"
   data-name="Groupe 4172"
   width="60.31"
   height="60.31"
   viewBox="0 0 60.31 60.31"
   version="1.1"
   sodipodi:docname="dydu-livechat.svg"
   xml:space="preserve"
   inkscape:version="1.3.1 (9b9bdc1480, 2023-11-25, custom)"
   xmlns:inkscape="http://www.inkscape.org/namespaces/inkscape"
   xmlns:sodipodi="http://sodipodi.sourceforge.net/DTD/sodipodi-0.dtd"
   xmlns="http://www.w3.org/2000/svg"
   xmlns:svg="http://www.w3.org/2000/svg"><sodipodi:namedview
     id="namedview1"
     pagecolor="#505050"
     bordercolor="#eeeeee"
     borderopacity="1"
     inkscape:showpageshadow="0"
     inkscape:pageopacity="0"
     inkscape:pagecheckerboard="0"
     inkscape:deskcolor="#505050"
     inkscape:zoom="8"
     inkscape:cx="1.5"
     inkscape:cy="26.1875"
     inkscape:window-width="1920"
     inkscape:window-height="1043"
     inkscape:window-x="0"
     inkscape:window-y="0"
     inkscape:window-maximized="1"
     inkscape:current-layer="Groupe_4172" /><defs
     id="defs1"><clipPath
       id="clip-path"><rect
         id="Rectangle_1151"
         data-name="Rectangle 1151"
         width="60.31"
         height="60.31"
         fill="none" /></clipPath><clipPath
       id="clip-path-0"><rect
         id="Rectangle_1151-9"
         data-name="Rectangle 1151"
         width="60.31"
         height="60.31"
         fill="none" /></clipPath></defs><g
     id="Groupe_4168"
     data-name="Groupe 4168"
     clip-path="url(#clip-path)"
     transform="matrix(0.71124085,0,0,0.75275831,9.0229289,11.279678)"><path
       id="Tracé_2032"
       data-name="Tracé 2032"
       d="M 0,30.155 A 30.155,30.155 0 1 1 30.155,60.31 30.155,30.155 0 0 1 0,30.155"
       fill="#ffd05d" /><path
       id="Tracé_2034"
       data-name="Tracé 2034"
       d="m 107.119,64.33 a 5.587,5.587 0 0 0 10.332,0.1 A 0.9,0.9 0 0 0 116,63.439 c -1.673,1.622 -4.318,2.924 -7.419,-0.088 a 0.9,0.9 0 0 0 -1.461,0.979"
       fill="#303030"
       transform="translate(-69.18,-40.773)"
       style="display:none" /><path
       id="Tracé_2035"
       data-name="Tracé 2035"
       d="m 33.889,64.33 a 5.587,5.587 0 0 0 10.331,0.1 0.9,0.9 0 0 0 -1.452,-0.994 c -1.673,1.622 -4.318,2.924 -7.419,-0.088 a 0.9,0.9 0 0 0 -1.461,0.979"
       fill="#303030"
       transform="translate(-21.857,-40.773)"
       style="display:none;fill:#303030;fill-opacity:1" /><path
       d="M 35.069984,34.499892 H 25.71131 a 4.7916104,7.3078027 0 0 0 -0.118452,1.523437 4.7916104,7.3078027 0 0 0 4.791048,7.308594 4.7916104,7.3078027 0 0 0 4.792011,-7.308594 4.7916104,7.3078027 0 0 0 -0.105933,-1.523437 z"
       style="fill:#ffffff;stroke-width:0.908765"
       id="path5"
       transform="matrix(1.4059935,0,0,1.3284476,-12.614974,-10.954798)"
       inkscape:label="Bouche" /><ellipse
       style="display:inline;fill:#ffffff;fill-opacity:1;stroke-width:1.00634"
       id="path1"
       cx="17.220222"
       cy="22.254824"
       rx="5.2201171"
       ry="4.6806021"
       transform="matrix(1.0021215,0,0,1.0021215,-0.07235133,0.07686559)" /><ellipse
       style="display:inline;fill:#ffffff;fill-opacity:1;stroke-width:1.01911"
       id="path1-5"
       cx="43.076599"
       cy="22.137157"
       rx="5.2258415"
       ry="4.7948303"
       transform="matrix(1.0021215,0,0,1.0021215,-0.07235133,0.07686559)" /><circle
       style="fill:#000000;fill-opacity:1"
       id="path2"
       cx="17.172983"
       cy="22.439856"
       r="3.0071466"
       transform="matrix(1.0021215,0,0,1.0021215,-0.07235133,0.07686559)" /><circle
       style="fill:#000000;fill-opacity:1"
       id="path2-9"
       cx="43.052727"
       cy="22.228598"
       r="3.0071466"
       transform="matrix(1.0021215,0,0,1.0021215,-0.07235133,0.07686559)" /></g><g
     id="g14"
     style="fill:#2b2b2b;fill-opacity:1"
     transform="translate(0.05064392,3.0333633)"><path
       d="m 59.798828,24.572266 v 10.884765 a 30.2239,30.044821 0 0 0 0.53125,-5.302734 30.2239,30.044821 0 0 0 -0.53125,-5.582031 z"
       style="fill:#2b2b2b;fill-opacity:1;stroke-width:1.11459"
       id="path14" /><path
       d="M 30.107422,0.109375 A 30.2239,30.044821 0 0 0 1.2167969,21.400391 H 3.9804688 A 27.504839,27.341871 0 0 1 29.972656,2.9042969 27.504839,27.341871 0 0 1 55.998047,21.421875 h 3.027344 A 30.2239,30.044821 0 0 0 30.107422,0.109375 Z"
       style="fill:#2b2b2b;fill-opacity:1;stroke-width:1.11459"
       id="path8" /><path
       d="m 3.9804688,21.400391 a 27.504839,27.341871 0 0 0 -1.5136719,8.845703 27.504839,27.341871 0 0 0 1.6601562,9.201172 H 9.0507813 V 21.400391 Z"
       style="fill:#2b2b2b;fill-opacity:1"
       id="path10" /><path
       d="M 1.4199219,39.447266 H 4.1269531 A 27.504839,27.341871 0 0 1 2.4667969,30.246094 27.504839,27.341871 0 0 1 3.9804688,21.400391 H 1.2167969 a 30.2239,30.044821 0 0 0 -0.1054688,0.279296 v 16.947266 a 30.2239,30.044821 0 0 0 0.3085938,0.820313 z"
       style="fill:#2b2b2b;fill-opacity:1"
       id="path9" /><path
       d="m 59.025391,21.421875 h -3.027344 a 27.504839,27.341871 0 0 1 1.478515,8.824219 27.504839,27.341871 0 0 1 -1.669921,9.224609 h 2.980468 a 30.2239,30.044821 0 0 0 1.011719,-4.013672 V 24.572266 a 30.2239,30.044821 0 0 0 -0.773437,-3.150391 z"
       style="fill:#2b2b2b;fill-opacity:1"
       id="path13" /><path
       d="m 55.998047,21.421875 h -4.140625 v 18.048828 h 3.949219 a 27.504839,27.341871 0 0 0 1.669921,-9.224609 27.504839,27.341871 0 0 0 -1.478515,-8.824219 z"
       style="fill:#2b2b2b;fill-opacity:1"
       id="path12" /><path
       d="M 1.1113281,38.626953 V 21.679687 a 30.2239,30.044821 0 0 0 -1.2285156,8.47461 30.2239,30.044821 0 0 0 1.2285156,8.472656 z"
       style="fill:#2b2b2b;fill-opacity:1;stroke-width:1.11459"
       id="path11" /></g><g
     id="g25"
     style="fill:#2b2b2b;fill-opacity:1"
     transform="translate(0.05064392,3.0333633)"><path
       d="M 8.2028603,53.273437 A 3.2933149,3.0821857 0 0 0 11.06402,50.292969 H 7.75 v 2.980468 z"
       style="fill:#2b2b2b;fill-opacity:1;stroke-width:1.03368"
       id="path21" /><path
       d="M 4.7246094,37.542969 V 49.994141 A 3.0821857,3.0821857 0 0 1 7.75,47.166016 V 46.865234 A 3.6156392,3.6156392 0 0 1 7.7304687,46.716797 3.6156392,3.6156392 0 0 1 7.75,46.568359 v -9.02539 z"
       style="fill:#2b2b2b;fill-opacity:1"
       id="path18" /><path
       d="M 11.048828,50.292969 H 10.851563 A 3.0821857,3.0821857 0 0 1 8.1738281,53.273437 H 29.257812 v -0.03906 a 3.6156392,3.6156392 0 0 1 -0.171875,0.02344 3.6156392,3.6156392 0 0 1 -3.53125,-2.964843 H 11.642578 a 3.6156392,3.6156392 0 0 1 -0.296875,0.03906 3.6156392,3.6156392 0 0 1 -0.296875,-0.03906 z"
       style="fill:#2b2b2b;fill-opacity:1;stroke-width:1.00379"
       id="path23" /><path
       d="M 7.7547068,53.272357 V 50.098243 H 4.7264941 v 0.451364 a 3.1152276,3.2824414 0 0 0 2.6491926,2.72275 z"
       style="fill:#2b2b2b;fill-opacity:1;stroke-width:1.03749"
       id="path20" /><path
       d="m 7.7330933,47.162109 a 3.1384779,3.1384779 0 0 0 -0.013922,0 3.1384779,3.1384779 0 0 0 -0.025855,0.004 v 3.184063 h 3.1582087 a 3.1384779,3.1384779 0 0 0 0.002,-0.02585 3.6816742,3.6816742 0 0 1 -3.1204219,-3.162186 z"
       style="fill:#2b2b2b;fill-opacity:1;stroke-width:1.01826"
       id="path22" /><path
       d="M 4.7539062,50.716797 V 50.258988 H 7.75 v -3.377662 a 3.0821857,3.3293052 0 0 0 -3.0253906,3.054875 v 0.542198 a 3.0821857,3.3293052 0 0 0 0.029297,0.238398 z"
       style="fill:#2b2b2b;fill-opacity:1;stroke-width:1.03932"
       id="path19" /><circle
       style="fill:#2b2b2b;fill-opacity:1;stroke-width:0.82143"
       id="path25"
       cx="29.060856"
       cy="49.084591"
       r="4.1886015" /></g></svg>
