<svg xmlns="http://www.w3.org/2000/svg" xmlns:xlink="http://www.w3.org/1999/xlink" width="60.31" height="60.31" viewBox="0 0 60.31 60.31">
  <defs>
    <clipPath id="clip-path">
      <rect id="Rectangle_1150" data-name="Rectangle 1150" width="60.31" height="60.31" fill="none"/>
    </clipPath>
  </defs>
  <g id="Groupe_4174" data-name="Groupe 4174" transform="translate(-45 96)">
    <g id="Groupe_4166" data-name="Groupe 4166" transform="translate(45 -96)" clip-path="url(#clip-path)">
      <path id="Tracé_2026" data-name="Tracé 2026" d="M0,30.155A30.155,30.155,0,1,1,30.155,60.31,30.155,30.155,0,0,1,0,30.155" fill="#ffd05d"/>
      <path id="Tracé_2027" data-name="Tracé 2027" d="M41.25,57.048a6.913,6.913,0,1,1-6.913-6.913,6.913,6.913,0,0,1,6.913,6.913" transform="translate(-17.721 -32.398)" fill="#fff"/>
      <path id="Tracé_2028" data-name="Tracé 2028" d="M44.739,52.123a6.89,6.89,0,0,0-8.34-1.034,1.713,1.713,0,0,0-.373.894c-.135,1.442,1.726,2.8,4.157,3.024s4.511-.757,4.646-2.2a1.641,1.641,0,0,0-.089-.685" transform="translate(-23.276 -32.398)" fill="#303030"/>
      <path id="Tracé_2029" data-name="Tracé 2029" d="M117.793,57.048a6.913,6.913,0,1,1-6.913-6.913,6.913,6.913,0,0,1,6.913,6.913" transform="translate(-67.186 -32.398)" fill="#fff"/>
      <path id="Tracé_2030" data-name="Tracé 2030" d="M121.283,52.123a6.89,6.89,0,0,0-8.34-1.034,1.713,1.713,0,0,0-.373.894c-.135,1.442,1.726,2.8,4.157,3.024s4.511-.757,4.646-2.2a1.647,1.647,0,0,0-.089-.685" transform="translate(-72.74 -32.398)" fill="#303030"/>
      <path id="Tracé_2031" data-name="Tracé 2031" d="M75.576,98.483a12.143,12.143,0,0,0-5.7-3.033,15.392,15.392,0,0,0-6.5-.119A16.289,16.289,0,0,0,57.4,97.808a14.143,14.143,0,0,0-4.386,4.612.708.708,0,0,0,.927.986l.66-.327c1.553-.768,3.02-1.494,4.508-2.075a28.234,28.234,0,0,1,5.068-1.5,24.958,24.958,0,0,1,5.222-.448,32.718,32.718,0,0,1,5.549.631.708.708,0,0,0,.627-1.2" transform="translate(-34.199 -61.418)" fill="#5e4939"/>
    </g>
  </g>
</svg>
