<?xml version="1.0" encoding="UTF-8"?>
<svg id="Calque_1" data-name="Calque 1" xmlns="http://www.w3.org/2000/svg" width="1920" height="1022.37265" xmlns:xlink="http://www.w3.org/1999/xlink" viewBox="0 0 1920 1022.37265">
  <defs>
    <style>
      .cls-1 {
        fill: url(#Dégradé_sans_nom_2);
      }
    </style>
    <linearGradient id="Dégradé_sans_nom_2" data-name="Dégradé sans nom 2" x1="421.03692" y1="306.57228" x2="675.84053" y2="675.65327" gradientUnits="userSpaceOnUse">
      <stop offset=".04163" stop-color="#2b55ff"/>
      <stop offset=".99934" stop-color="#ff5768"/>
    </linearGradient>
  </defs>
  <path class="cls-1" d="M704.65301,287.90735l-64.3235,37.3371c-61.74456-41.82261-142.90124-50.43475-212.46877-21.71754-119.96775,49.52182-173.57429,193.96336-113.38051,309.49216,14.45638,27.7453,34.23049,50.11583,57.04876,70.87659l12.73682,9.49519c134.27824,98.07949,353.61514,9.38306,353.61514-156.12498,0-72.04172.25336-152.15627.25336-227.12224-1.87824-19.69264-14.52001-26.63333-33.48129-22.23628ZM522.98727,600.44714l-.04578-.02406-71.5773-.17576c-1.96321,0-3.85115-.75657-5.27041-2.11297l-.17459-.16683c-1.52479-1.45728-2.37913-3.48101-2.35741-5.59089l.17925-18.30481-8.07245-19.68294-.0031-.00155c-.24055-.4423-.478-.88694-.71079-1.33351-6.42583-12.30422-10.05971-26.29811-10.05971-41.14053,0-49.14935,39.84388-88.99285,88.99323-88.99285s88.99285,39.8435,88.99285,88.99285c0,46.07766-35.0185,83.97618-79.89379,88.53386Z"/>
  <path d="M855.63543,383.92795h89.9145c16.88269,0,32.48026,3.06225,46.7927,9.17404,14.31244,6.11815,26.60599,14.62205,36.88278,25.50748,10.27467,10.88967,18.3502,23.7961,24.22235,38.71717,5.87215,14.92743,8.80716,31.07425,8.80716,48.44258,0,17.37681-2.93501,33.46001-8.80716,48.2602-5.87215,14.80655-13.94768,27.65148-24.22235,38.53479-10.27679,10.88967-22.57035,19.39357-36.88278,25.50748-14.31244,6.11815-29.91,9.17404-46.7927,9.17404h-89.9145v-243.31778ZM944.81618,597.88711c12.71981,0,24.27961-2.38576,34.68152-7.15728,10.39555-4.77152,19.26633-11.25018,26.60599-19.45083,7.34178-8.19429,13.02943-17.9197,17.06507-29.17625,4.03777-11.25018,6.05665-23.36136,6.05665-36.33353,0-12.96369-2.01888-25.13848-6.05665-36.5159-4.03564-11.3753-9.7233-21.2216-17.06507-29.54312-7.33966-8.31305-16.21044-14.86169-26.60599-19.63321-10.40191-4.77152-21.96171-7.15728-34.68152-7.15728h-63.85777l6.6059-7.33966v199.64672l-6.6059-7.33966h63.85777Z"/>
  <path d="M1080.60513,455.12538h32.66264l53.94785,145.69674h-4.77152l53.94785-145.69674h32.66264l-75.59995,194.13932c-3.42913,8.31517-6.97278,15.78206-10.64367,22.38797-3.66877,6.6059-8.01615,12.16843-13.02731,16.6982-5.01752,4.5234-10.76879,8.00979-17.24957,10.45917-6.48502,2.44302-14.37606,3.66877-23.67098,3.66877-6.11815,0-11.50254-.79525-16.14894-2.38364-4.64852-1.59475-7.95253-2.87988-9.90779-3.85327l2.93501-26.05674c3.17677,1.46751,6.72678,2.68902,10.64367,3.66877,3.91052.97551,7.70653,1.46751,11.37742,1.46751,6.11179,0,11.3753-1.10063,15.77994-3.30189,4.40464-2.20338,8.19429-5.26352,11.37742-9.17616,3.17677-3.91477,5.92941-8.56541,8.25791-13.94556,2.32214-5.38439,4.34102-11.25654,6.05453-17.61433l-68.62717-176.15812Z"/>
  <path d="M1402.82475,601.92275c-6.36627,8.80716-14.49694,15.84356-24.40685,21.10284-9.90779,5.25715-21.71571,7.89103-35.41527,7.89103-11.25654,0-21.83447-2.267-31.74439-6.7904-9.90779-4.5234-18.47532-10.76243-25.68986-18.71708-7.21878-7.94829-12.90855-17.48921-17.06507-28.62487-4.16289-11.13142-6.23903-23.3041-6.23903-36.5159,0-12.96581,2.07614-24.89248,6.23903-35.78215,4.15652-10.8833,9.84629-20.24184,17.06507-28.07562,7.21454-7.82741,15.78206-13.94556,25.68986-18.3502,9.90991-4.40252,20.48784-6.6059,31.74439-6.6059,13.45356,0,25.19786,2.69538,35.2329,8.07341,10.02867,5.38439,18.10208,12.35929,24.22023,20.92046v-105.69657h30.46138v252.49394h-30.09238v-25.32298ZM1369.05936,598.25398c6.84766-3.42489,12.71981-7.94829,17.61645-13.57868,4.8924-5.62615,8.74566-12.23205,11.5598-19.81983,2.80989-7.57929,4.22014-15.77994,4.22014-24.58711,0-8.31517-1.41025-16.2062-4.22014-23.67098-2.81414-7.46054-6.6674-14.00494-11.5598-19.63533-4.89664-5.62615-10.76879-9.96505-17.61645-13.02731-6.8519-3.05801-14.31244-4.58914-22.38585-4.58914s-15.41307,1.53113-22.01897,4.58914c-6.6059,3.06225-12.35929,7.33966-17.24957,12.84493-4.89664,5.50315-8.62479,12.0518-11.19292,19.63321-2.57026,7.58565-3.85327,15.54031-3.85327,23.85547,0,8.80716,1.28301,17.00781,3.85327,24.58711,2.56814,7.58778,6.29628,14.19368,11.19292,19.81983,4.89028,5.63039,10.64367,10.15379,17.24957,13.57868,6.6059,3.42913,13.94556,5.13628,22.01897,5.13628s15.53395-1.70714,22.38585-5.13628Z"/>
  <path d="M1600.26596,627.24573v-23.85547c-2.20338,3.67089-4.95602,7.15728-8.25791,10.45917-3.30401,3.30401-7.10002,6.18177-11.37742,8.62479-4.28376,2.44938-9.11678,4.46826-14.49481,6.05665-5.38651,1.58839-11.25654,2.38576-17.61645,2.38576-11.01055,0-20.6787-1.71563-28.99387-5.1384-8.31941-3.42489-15.41307-8.19429-21.28522-14.31244-5.87215-6.11391-10.27467-13.57868-13.21181-22.38797-2.93501-8.80716-4.40464-18.58984-4.40464-29.35863v-104.59382h30.46138v97.25416c0,16.14682,3.60727,28.38312,10.82605,36.69828,7.21454,8.32153,17.55283,12.47805,31.01275,12.47805,6.6059,0,12.78131-1.15789,18.53258-3.48639,5.74491-2.32214,10.76243-5.62615,15.04619-9.90779,4.2774-4.27952,7.64503-9.47942,10.09229-15.59757,2.44302-6.11391,3.67089-12.96581,3.67089-20.55146v-96.88728h30.09238v172.12035h-30.09238Z"/>
</svg>