<?xml version="1.0" encoding="UTF-8"?>
<svg id="Calque_1" data-name="Calque 1" xmlns="http://www.w3.org/2000/svg" width="1200" height="1200" xmlns:xlink="http://www.w3.org/1999/xlink" viewBox="0 0 1200 1200">
  <defs>
    <style>
      .cls-1 {
        fill: url(#Dégradé_sans_nom_2);
      }
    </style>
    <linearGradient id="Dégradé_sans_nom_2" data-name="Dégradé sans nom 2" x1="408.16245" y1="178.75022" x2="934.60663" y2="941.3004" gradientUnits="userSpaceOnUse">
      <stop offset=".04163" stop-color="#2b55ff"/>
      <stop offset=".99934" stop-color="#ff5768"/>
    </linearGradient>
  </defs>
  <path class="cls-1" d="M994.13547,140.18702l-132.89738,77.14137c-127.56908-86.40879-295.24513-104.20214-438.97708-44.87014-247.86274,102.31595-358.61805,400.74347-234.253,639.43499,29.868,57.32396,70.72288,103.54321,117.86719,146.43658l26.31527,19.61781c277.42934,202.63989,730.59653,19.38615,730.59653-322.56642,0-148.84382.52345-314.36675.52345-469.25231-3.8806-40.68654-29.99947-55.02655-69.17497-45.9419ZM618.79984,785.91867l-.09459-.0497-147.88429-.36313c-4.05615,0-7.95678-1.56314-10.88908-4.36557l-.36072-.34469c-3.15033-3.01085-4.91547-7.19205-4.87058-11.55121l.37034-37.81918-16.67831-40.6665-.00641-.00321c-.497-.91384-.98758-1.83248-1.46855-2.75513-13.27627-25.42147-20.78415-54.33395-20.78415-84.99956,0-101.5464,82.32058-183.86618,183.86698-183.86618s183.86618,82.31978,183.86618,183.86618c0,95.20005-72.35095,173.50136-165.06681,182.91787Z"/>
</svg>