<svg id="Groupe_4172" data-name="Groupe 4172" xmlns="http://www.w3.org/2000/svg" xmlns:xlink="http://www.w3.org/1999/xlink" width="60.31" height="60.31" viewBox="0 0 60.31 60.31">
  <defs>
    <clipPath id="clip-path">
      <rect id="Rectangle_1151" data-name="Rectangle 1151" width="60.31" height="60.31" fill="none"/>
    </clipPath>
  </defs>
  <g id="Groupe_4168" data-name="Groupe 4168" clip-path="url(#clip-path)">
    <path id="Tracé_2032" data-name="Tracé 2032" d="M0,30.155A30.155,30.155,0,1,1,30.155,60.31,30.155,30.155,0,0,1,0,30.155" fill="#ffd05d"/>
    <path id="Tracé_2033" data-name="Tracé 2033" d="M47.2,93.488a1,1,0,0,0-1.619,1.085,15.115,15.115,0,0,0,27.953.277.994.994,0,0,0-1.607-1.1c-4.413,4.279-13.782,10.367-24.727-.266" transform="translate(-29.404 -60.226)" fill="#5e4939"/>
    <path id="Tracé_2034" data-name="Tracé 2034" d="M107.119,64.33a5.587,5.587,0,0,0,10.332.1A.9.9,0,0,0,116,63.439c-1.673,1.622-4.318,2.924-7.419-.088a.9.9,0,0,0-1.461.979" transform="translate(-69.18 -40.773)" fill="#303030"/>
    <path id="Tracé_2035" data-name="Tracé 2035" d="M33.889,64.33a5.587,5.587,0,0,0,10.331.1.9.9,0,0,0-1.452-.994c-1.673,1.622-4.318,2.924-7.419-.088a.9.9,0,0,0-1.461.979" transform="translate(-21.857 -40.773)" fill="#303030"/>
  </g>
</svg>
