<svg id="Groupe_4173" data-name="Groupe 4173" xmlns="http://www.w3.org/2000/svg" xmlns:xlink="http://www.w3.org/1999/xlink" width="60.31" height="60.31" viewBox="0 0 60.31 60.31">
  <defs>
    <clipPath id="clip-path">
      <rect id="Rectangle_1152" data-name="Rectangle 1152" width="60.31" height="60.31" fill="none"/>
    </clipPath>
  </defs>
  <g id="Groupe_4170" data-name="Groupe 4170" clip-path="url(#clip-path)">
    <path id="Tracé_2036" data-name="Tracé 2036" d="M0,30.155A30.155,30.155,0,1,1,30.155,60.31,30.155,30.155,0,0,1,0,30.155" fill="#ffd05d"/>
    <path id="Tracé_2037" data-name="Tracé 2037" d="M74.642,105.2a12.9,12.9,0,0,0-25.634,0Z" transform="translate(-31.67 -60.592)" fill="#695342"/>
    <path id="Tracé_2038" data-name="Tracé 2038" d="M49.008,119.626s10.814-7.973,25.634,0Z" transform="translate(-31.67 -75.015)" fill="#f06669"/>
    <path id="Tracé_2039" data-name="Tracé 2039" d="M36.4,67.068a1.278,1.278,0,0,1-.786-2.286l4.349-3.389-4.5-2.644a1.278,1.278,0,1,1,1.3-2.2l6.117,3.6a1.278,1.278,0,0,1,.138,2.11L37.189,66.8a1.272,1.272,0,0,1-.785.27" transform="translate(-22.515 -36.427)" fill="#303030"/>
    <path id="Tracé_2040" data-name="Tracé 2040" d="M118.224,67.069a1.272,1.272,0,0,1-.785-.27l-5.833-4.545a1.279,1.279,0,0,1,.137-2.11l6.117-3.6a1.278,1.278,0,1,1,1.3,2.2l-4.5,2.644,4.349,3.389a1.278,1.278,0,0,1-.786,2.286" transform="translate(-71.804 -36.427)" fill="#303030"/>
  </g>
</svg>
