<?xml version="1.0" encoding="UTF-8"?><svg id="b" xmlns="http://www.w3.org/2000/svg" viewBox="0 0 594 594"><defs><style>.cls-1{fill:#ff7386;}.cls-1,.cls-2,.cls-3,.cls-4,.cls-5,.cls-6,.cls-7,.cls-8,.cls-9{fill-rule:evenodd;}.cls-2{fill:#ff96ac;}.cls-3{fill:#ffe3e3;}.cls-4{fill:#723137;}.cls-5{fill:#fde0e4;}.cls-6{fill:#da5063;}.cls-7{fill:#fcb5c4;}.cls-8{fill:#e4ffd4;}.cls-9{fill:#ffd7dd;}.cls-10{fill:#d20a11;}</style></defs><g id="c"><g><circle class="cls-10" cx="297" cy="297" r="297"/><g><g><path class="cls-7" d="M299.3,472.8c-69.6,.9-139.4,46.9-168.9,69.2,47.7,32.7,105.4,51.8,167.7,51.8s123.2-20.2,171.6-54.6c-27.9-20.7-99.1-67.3-170.4-66.4h0Z"/><path class="cls-5" d="M212,471.1c-3.7,3.4-5.9,10.6-5.8,18.3,.5,20.6,1.5,60.1,2.3,90.8,28.2,8.9,58.3,13.7,89.5,13.7s61.2-4.8,89.4-13.7c.8-30.3,1.9-70.1,2.4-90.8,.2-7.7-2-14.9-5.7-18.3-16.3-14.9-155.8-14.8-172.1,0h0Zm86,63.2h0Z"/><rect class="cls-10" x="276.84" y="511.33" width="42.4" height="42.4" transform="translate(-307.57 607.67) rotate(-67.84)"/><g><path class="cls-1" d="M320.3,466.2c-.4,.4-11,10.8-21.5,11s-21-9.9-21.4-10.4c-.8-.9-1.3-2.4-1.3-4.2-.2-8.3-.5-21-.7-27.1,0-2,.5-3.9,1.5-4.8,4.2-3.9,39.8-3.9,44,0,.9,.9,1.5,2.8,1.5,4.8-.2,6.1-.5,18.4-.7,26.5-.1,1.8-.6,3.3-1.4,4.2h0Zm-21.5-18.9"/><path class="cls-6" d="M320.3,456.7c-.4,.4-11,10.8-21.5,11s-21-9.9-21.4-10.4c-.8-.9-1.3-2.4-1.3-4.2-.2-8.3-.5-21-.7-27.1,0-2,.5-3.9,1.5-4.8,4.2-3.9,39.8-3.9,44,0,.9,.9,1.5,2.8,1.5,4.8-.2,6.1-.5,18.4-.7,26.5-.1,1.8-.6,3.4-1.4,4.2h0Zm-21.5-18.8"/><path class="cls-1" d="M320.3,451.8c-.4,.4-11,10.8-21.5,11s-21-9.9-21.4-10.4c-.8-.9-1.3-2.4-1.3-4.2-.2-8.3-.5-21-.7-27.1,0-2,.5-3.9,1.5-4.8,4.2-3.9,39.8-3.9,44,0,.9,.9,1.5,2.8,1.5,4.8-.2,6.1-.5,18.4-.7,26.5-.1,1.8-.6,3.4-1.4,4.2h0Zm-21.5-18.8"/><path class="cls-6" d="M320.3,440.9c-.4,.4-11,10.8-21.5,11s-21-9.9-21.4-10.4c-.8-.9-1.3-2.4-1.3-4.2-.2-8.3-.5-21-.7-27.1,0-2,.5-3.9,1.5-4.8,4.2-3.9,39.8-3.9,44,0,.9,.9,1.5,2.8,1.5,4.8-.2,6.1-.5,18.4-.7,26.5-.1,1.8-.6,3.3-1.4,4.2h0Zm-21.5-18.9"/><path class="cls-1" d="M320.3,436c-.4,.4-11,10.8-21.5,11s-21-9.9-21.4-10.4c-.8-.9-1.3-2.4-1.3-4.2-.2-8.3-.5-21-.7-27.1,0-2,.5-3.9,1.5-4.8,4.2-3.9,39.8-3.9,44,0,.9,.9,1.5,2.8,1.5,4.8-.2,6.1-.5,18.4-.7,26.5-.1,1.8-.6,3.3-1.4,4.2h0Zm-21.5-18.9"/><path class="cls-6" d="M320.3,424.23c-.4,.4-11,10.8-21.5,11s-21-9.9-21.4-10.4c-.8-.9-1.3-2.4-1.3-4.2-.2-8.3-.5-21-.7-27.1,0-2,.5-3.9,1.5-4.8,4.2-3.9,39.8-3.9,44,0,.9,.9,1.5,2.8,1.5,4.8-.2,6.1-.5,18.4-.7,26.5-.1,1.8-.6,3.3-1.4,4.2h0Zm-21.5-18.9"/><path class="cls-1" d="M320.3,419.33c-.4,.4-11,10.8-21.5,11s-21-9.9-21.4-10.4c-.8-.9-1.3-2.4-1.3-4.2-.2-8.3-.5-21-.7-27.1,0-2,.5-3.9,1.5-4.8,4.2-3.9,39.8-3.9,44,0,.9,.9,1.5,2.8,1.5,4.8-.2,6.1-.5,18.4-.7,26.5-.1,1.8-.6,3.3-1.4,4.2h0Zm-21.5-18.9"/></g></g><g><path class="cls-9" d="M125.1,155.43c3.37-2.66,89.66-62.92,167.94-63.74,77.91-.9,163.99,57.2,167.37,59.76,6.82,5.23,12.24,14.89,14.19,25.82,10.17,54.99,20.27,102.77,29.08,150.4,3,16.35,.2,31.95-7.27,39.36-16.95,16.59-105.9,62.86-201.18,62.86-95.74,.13-185.95-46.03-203.08-62.74-7.57-7.42-10.53-23.13-7.74-39.48,8.13-46.93,17.44-92.49,26.8-146.51,1.9-10.83,7.12-20.47,13.9-25.73h0Zm168.87,127.34h0Z"/><path class="cls-4" d="M426.19,314.48c-12.6,17.8-32.84,28.08-55.27,28.08H218.59c-22.43,0-42.82-10.28-55.66-28.08-11.87-16.45-15.57-37.55-10.34-57.77,6.09-23.67,11.91-46.11,15.86-61.47,1.84-7.05,9.01-11.54,16.48-11.54h39.77c2,2.88,4.2,5.7,6.7,8.37,15.53,16.78,38.2,26.71,62.35,26.71h0c24.15,0,46.78-9.93,61.98-26.71,2.47-2.67,4.63-5.49,6.59-8.37h39.87c7.47,0,14.7,4.49,16.64,11.54l16.71,61.47c5.72,20.22,2.2,41.32-9.33,57.77h0Z"/><path class="cls-7" d="M456.66,252.3c-6.8-23.5-13.3-45.78-17.71-61.04-4.93-16.91-21.16-29.74-38.84-29.74h-44.04c-3.3,0-6.22,1.69-7.98,4.63-1.94,3.34-4.36,6.47-7.08,9.38-11.76,12.58-29.03,19.71-47.23,19.71h0c-18.3,0-35.67-7.13-47.6-19.71-2.77-2.91-5.14-6.03-7.12-9.38-1.8-2.94-4.75-4.63-8.05-4.63h-44.04c-17.67,0-33.73,12.9-38.42,29.74-4.19,15.26-10.38,37.54-16.85,61.04-7.84,28.29-3.47,58.52,13.02,82.33,16.46,23.76,43.08,37.92,72.44,37.92h155.73c29.47,0,55.87-14.27,72.01-37.92,16.07-23.71,20.01-53.95,11.76-82.33h0Zm-30.46,62.18c-12.6,17.8-32.84,28.08-55.27,28.08H218.59c-22.43,0-42.82-10.28-55.66-28.08-11.87-16.45-15.57-37.55-10.34-57.77,6.09-23.67,11.91-46.11,15.86-61.47,1.84-7.05,9.01-11.54,16.48-11.54h39.77c2,2.88,4.2,5.7,6.7,8.37,15.53,16.78,38.2,26.71,62.35,26.71h0c24.15,0,46.78-9.93,61.98-26.71,2.47-2.67,4.63-5.49,6.59-8.37h39.87c7.47,0,14.7,4.49,16.64,11.54l16.71,61.47c5.72,20.22,2.2,41.32-9.33,57.77h0Z"/><path class="cls-8" d="M263.27,251.68c-1.68-.71-3.59,.41-4.64,2.97-1.05,2.46-1.22,5.87-.37,8.45,5.48,15.52,19.52,28.37,36.11,28.37s30.47-12.95,35.66-28.47c.82-2.59,.71-5.89-.46-8.25-1.07-2.46-2.9-3.58-4.57-2.86-8.98,3.79-19.59,8.32-30.81,8.32s-21.89-4.53-30.91-8.52h0Z"/><path class="cls-7" d="M531.76,295.82c-5.49,8.36-13.74,14.21-23.39,16.93-2.87,.76-5.77,1.31-8.83,1.53h0c-2.85,.22-5.81-1.64-7.35-4.47-.87-1.74-1.99-3.79-3.25-6.17-20.37-39.18-27.91-79.8-22.53-115.9,.21-1.18,.73-2.17,1.56-2.9s1.89-1.17,3.19-1.26h.09c3.52-.27,7.1-.09,10.55,.45,21.88,3.17,42.02,20.54,47.69,43.18,2.51,10,5.25,20.65,7.82,30.87,3.3,13.55,1.37,27.17-5.55,37.74h0Z"/><path class="cls-2" d="M532.26,295.18c-5.49,8.35-13.73,14.19-23.37,16.92-1.05-.76-1.82-1.74-2.52-2.94-.89-1.74-2.02-3.79-3.31-6.16-20.75-39.14-28.7-79.72-23.68-115.8,.2-1.18,.71-2.17,1.53-2.9,.41-.36,.84-.63,1.37-.81,21.87,3.16,41.92,20.52,47.68,43.14,2.51,9.99,5.25,20.63,7.83,30.84,3.38,13.44,1.47,27.04-5.54,37.71h0Z"/><path class="cls-7" d="M59.82,295.18c5.61,8.35,13.94,14.19,23.62,16.92,2.88,.76,5.79,1.31,8.85,1.53h0c2.86,.22,5.78-1.64,7.18-4.47,.84-1.74,1.93-3.79,3.16-6.16,19.79-39.14,26.75-79.72,20.85-115.8-.23-1.18-.76-2.17-1.6-2.9s-1.91-1.17-3.21-1.26h-.09c-3.52-.27-7.1-.09-10.54,.45-21.83,3.16-41.61,20.52-47.04,43.14-2.37,9.99-4.95,20.63-7.37,30.84-3.08,13.44-.97,27.04,6.2,37.71h0Z"/><path class="cls-2" d="M59.82,295.18c5.61,8.35,13.94,14.19,23.62,16.92,1.03-.76,1.89-1.74,2.47-2.94,.86-1.74,1.97-3.79,3.22-6.16,20.17-39.14,27.51-79.72,21.96-115.8-.22-1.18-.74-2.17-1.58-2.9-.42-.36-.85-.63-1.39-.81-21.83,3.16-41.61,20.52-47.04,43.14-2.36,9.99-4.95,20.63-7.37,30.84-3.18,13.44-1.06,27.04,6.1,37.71h0Z"/><path class="cls-3" d="M350.23,170.1c-.96,1.08-28.22,26.65-56.63,27.12-28.34,.37-55.76-24.51-56.74-25.5-1.96-2.07-3.1-5.82-3.12-10,.24-19.46,.6-48.02,.81-61.58,.09-4.32,1.65-8.38,4.07-10.28,10.58-8.24,98.33-8.32,109.01,0,2.44,1.9,4.05,5.95,4.2,10.28,.27,13.32,.95,41.09,1.4,60.08,.03,4.08-1.07,7.74-3,9.89h0Zm-56.97-43.96"/><path class="cls-8" d="M392.04,233.46c.92,.4,1.74-.3,2.22-1.69,.37-1.48,.32-3.36-.29-4.84-3.51-8.6-11.01-15.56-19.03-15.56s-14.59,6.96-16.84,15.66c-.41,1.48-.21,3.35,.35,4.74s1.49,2.08,2.35,1.69c4.49-2.18,9.71-4.85,15.29-4.85,5.58,0,11.16,2.57,15.94,4.85h0Z"/><path class="cls-8" d="M227.22,233.46c.87,.4,1.78-.3,2.43-1.69,.55-1.48,.73-3.36,.3-4.84-2.46-8.6-9.12-15.56-17.14-15.56s-15.44,6.96-18.75,15.66c-.59,1.48-.62,3.35-.22,4.74s1.23,2.08,2.14,1.69c4.75-2.18,10.3-4.85,15.88-4.85,5.58,0,10.94,2.57,15.35,4.85h0Z"/></g></g></g></g></svg>