<svg id="Countryflags.com" xmlns="http://www.w3.org/2000/svg" viewBox="0 0 300 150"><defs><style>.cls-1{fill:#fff;}.cls-2{fill:#cf142b;}.cls-3{fill:#00247d;}</style></defs><rect id="_14" data-name="14" class="cls-1" width="299.84" height="149.98"/><polygon id="_13" data-name="13" class="cls-2" points="134.93 89.94 134.93 149.98 164.91 149.98 164.91 89.94 299.84 89.94 299.84 59.96 164.91 59.96 164.91 0 134.93 0 134.93 59.96 0 59.96 0 89.94 134.93 89.94"/><polygon id="_12" data-name="12" class="cls-3" points="174.91 48.55 174.91 0 272 0 174.91 48.55"/><polygon id="_11" data-name="11" class="cls-3" points="174.91 101.43 174.91 149.98 272 149.98 174.91 101.43"/><polygon id="_10" data-name="10" class="cls-3" points="124.93 101.43 124.93 149.98 27.85 149.98 124.93 101.43"/><polygon id="_9" data-name="9" class="cls-3" points="124.93 48.55 124.93 0 27.85 0 124.93 48.55"/><polygon id="_8" data-name="8" class="cls-3" points="0 13.94 0 49.99 72.09 49.99 0 13.94"/><polygon id="_7" data-name="7" class="cls-3" points="299.84 13.94 299.84 49.99 227.76 49.99 299.84 13.94"/><polygon id="_6" data-name="6" class="cls-3" points="299.84 136.04 299.84 99.99 227.76 99.99 299.84 136.04"/><polygon id="_5" data-name="5" class="cls-3" points="0 136.04 0 99.99 72.09 99.99 0 136.04"/><polyline id="_4" data-name="4" class="cls-2" points="299.84 0 283.19 0 183.4 49.99 200.05 49.99 300 0"/><polyline id="_3" data-name="3" class="cls-2" points="116.44 99.99 99.79 99.99 0 149.98 16.65 149.98 116.6 99.99"/><polygon id="_2" data-name="2" class="cls-2" points="83.27 50.03 99.92 50.03 0 0 0 8.38 83.27 50.03"/><polygon id="_1" data-name="1" class="cls-2" points="216.52 99.97 199.87 99.97 299.79 150 299.79 141.62 216.52 99.97"/></svg>