<svg id="Countryflags.com" xmlns="http://www.w3.org/2000/svg" xmlns:xlink="http://www.w3.org/1999/xlink" viewBox="0 0 300 200"><defs><style>.cls-1,.cls-11,.cls-6,.cls-7,.cls-9{fill:none;}.cls-2{clip-path:url(#clip-path);}.cls-10,.cls-3{fill:red;}.cls-4{fill:#060;}.cls-15,.cls-5{fill:#ff0;}.cls-10,.cls-13,.cls-5,.cls-8{fill-rule:evenodd;}.cls-11,.cls-6,.cls-7,.cls-9{stroke:#000;}.cls-6,.cls-7{stroke-linecap:round;stroke-linejoin:round;}.cls-6{stroke-width:0.29px;}.cls-7{stroke-width:0.27px;}.cls-14,.cls-8{fill:#fff;}.cls-9{stroke-width:0.34px;}.cls-11{stroke-width:0.25px;}.cls-12{fill:#039;}</style><clipPath id="clip-path" transform="translate(0 0)"><rect class="cls-1" width="300" height="200"/></clipPath></defs><g id="_252" data-name=" 252"><g class="cls-2"><rect id="_254" data-name=" 254" class="cls-3" x="120" width="180" height="200"/></g></g><rect id="_251" data-name=" 251" class="cls-4" width="120" height="200"/><path id="_250" data-name=" 250" class="cls-5" d="M159.12,131c-15.1-.46-84.37-43.69-84.85-50.58l3.83-6.37c6.87,10,77.68,52,84.63,50.54L159.12,131" transform="translate(0 0)"/><path id="_249" data-name=" 249" class="cls-5" d="M77.29,73.2c-1.35,3.65,18.08,15.66,41.46,29.88s43.53,23,45,21.74a12.78,12.78,0,0,0,.68-1.26c-.28.42-1,.55-2,.25-6.31-1.83-22.78-9.38-43.18-21.76S81.09,78.28,78.33,73.44A3,3,0,0,1,78,72h0l-.58,1Zm82.18,58c-.25.46-.73.48-1.64.38-5.65-.63-22.79-9-43.08-21.11-23.6-14.13-43.1-27-41-30.37l.58-1h.11c-1.9,5.7,38.47,28.78,40.85,30.26,23.36,14.47,43.06,22.92,44.8,20.72l-.64,1.1" transform="translate(0 0)"/><path id="_248" data-name=" 248" class="cls-6" d="M77.29,73.2c-1.35,3.65,18.08,15.66,41.46,29.88s43.53,23,45,21.74a12.78,12.78,0,0,0,.68-1.26c-.28.42-1,.55-2,.25-6.31-1.83-22.78-9.39-43.18-21.76S81.09,78.28,78.33,73.44A3,3,0,0,1,78,72h0l-.58,1Zm82.18,58c-.25.46-.73.48-1.64.38-5.64-.63-22.79-9-43.08-21.11-23.6-14.12-43.1-27-41-30.37l.57-1h.12c-1.9,5.7,38.47,28.79,40.85,30.26,23.36,14.48,43.05,22.93,44.8,20.73l-.64,1.09Z" transform="translate(0 0)"/><path id="_247" data-name=" 247" class="cls-5" d="M120.09,84.61c15.11-.12,33.77-2.06,44.51-6.34l-2.32-3.76c-6.34,3.51-25.1,5.82-42.32,6.17-20.37-.19-34.75-2.08-42-6.92l-2.19,4c13.25,5.61,26.82,6.8,44.27,6.85" transform="translate(0 0)"/><path id="_246" data-name=" 246" class="cls-5" d="M165.22,78.35c-.37.59-7.37,3-17.69,4.79a182.11,182.11,0,0,1-27.5,2,194.91,194.91,0,0,1-26.34-1.67c-10.83-1.7-16.42-4.06-18.48-4.89.19-.39.32-.67.51-1a79.76,79.76,0,0,0,18.14,4.81A192,192,0,0,0,120,84a184.89,184.89,0,0,0,27.31-2c10.57-1.71,16.35-3.91,17.16-4.92Zm-2-3.81c-1.15.92-6.86,2.95-16.91,4.55a179.88,179.88,0,0,1-26.13,1.84A175.28,175.28,0,0,1,94.9,79.3a69,69,0,0,1-17.6-4.44l.6-1c1.53.76,6.77,2.89,17.12,4.36a182.06,182.06,0,0,0,25.13,1.56,180.11,180.11,0,0,0,25.94-1.84c10.1-1.39,15.54-4,16.36-4.62l.74,1.22" transform="translate(0 0)"/><path id="_245" data-name=" 245" class="cls-6" d="M165.22,78.35c-.37.6-7.37,3-17.69,4.79a182.11,182.11,0,0,1-27.5,2,194.91,194.91,0,0,1-26.34-1.67c-10.83-1.69-16.42-4.06-18.48-4.89.19-.39.32-.67.51-1a80.28,80.28,0,0,0,18.14,4.81A192,192,0,0,0,120,84a184.89,184.89,0,0,0,27.31-2c10.58-1.71,16.35-3.9,17.17-4.92l.74,1.28Zm-2-3.81c-1.15.92-6.86,2.95-16.91,4.55a179.88,179.88,0,0,1-26.13,1.84A175.28,175.28,0,0,1,94.9,79.3a68.94,68.94,0,0,1-17.59-4.44l.59-1c1.53.76,6.77,2.89,17.12,4.36a182.06,182.06,0,0,0,25.13,1.56,180.11,180.11,0,0,0,25.94-1.84c10.1-1.39,15.54-4,16.36-4.62Z" transform="translate(0 0)"/><path id="_244" data-name=" 244" class="cls-5" d="M70.44,102.83c9.3,5,30,7.52,49.5,7.69,17.79,0,41-2.74,49.64-7.34l-.23-5c-2.71,4.24-27.56,8.31-49.61,8.14s-42.52-3.57-49.34-8v4.5" transform="translate(0 0)"/><path id="_243" data-name=" 243" class="cls-5" d="M170.06,102.11v1.2c-1.3,1.55-9.47,3.91-19.72,5.56a203.8,203.8,0,0,1-30.63,2.1,192.36,192.36,0,0,1-29.07-2c-11.77-1.71-19.29-4.71-20.8-5.61V102c4.54,3,16.83,5.22,21,5.9a190.27,190.27,0,0,0,28.91,2,203.08,203.08,0,0,0,30.47-2.09c7.35-1.06,17.82-3.82,19.88-5.66Zm0-4.25v1.2c-1.31,1.55-9.48,3.91-19.72,5.57a203.8,203.8,0,0,1-30.63,2.1,191.2,191.2,0,0,1-29.08-2C78.88,103,71.35,100,69.84,99.12v-1.4c4.54,3,16.83,5.23,21,5.9a190.27,190.27,0,0,0,28.91,2,204.26,204.26,0,0,0,30.46-2.08c7.35-1.07,17.82-3.83,19.89-5.67" transform="translate(0 0)"/><path id="_242" data-name=" 242" class="cls-6" d="M170.06,102.11v1.19c-1.3,1.56-9.47,3.92-19.72,5.57a203.8,203.8,0,0,1-30.63,2.1,192.36,192.36,0,0,1-29.07-2c-11.77-1.71-19.29-4.71-20.8-5.61V102c4.54,3,16.83,5.22,21,5.9a192.87,192.87,0,0,0,28.91,2,203.08,203.08,0,0,0,30.47-2.09c7.35-1.06,17.82-3.82,19.88-5.66Zm0-4.25v1.2c-1.31,1.55-9.48,3.91-19.72,5.57a205.11,205.11,0,0,1-30.63,2.09,191.2,191.2,0,0,1-29.08-2C78.88,103,71.35,100,69.84,99.12v-1.4c4.53,3,16.83,5.23,21,5.9a190.13,190.13,0,0,0,28.9,2,203.07,203.07,0,0,0,30.47-2.08c7.35-1.07,17.82-3.83,19.88-5.67Z" transform="translate(0 0)"/><path id="_241" data-name=" 241" class="cls-5" d="M119.9,130.16c-21.39-.13-39.71-5.83-43.58-6.77l2.82,4.41c6.83,2.88,24.71,7.17,41,6.69s30.45-1.73,40.46-6.6l2.9-4.58c-6.82,3.21-30,6.82-43.56,6.85" transform="translate(0 0)"/><path id="_240" data-name=" 240" class="cls-5" d="M161.65,126.86c-.42.65-.86,1.29-1.3,1.91a113.28,113.28,0,0,1-15.3,3.92A137.57,137.57,0,0,1,119.92,135c-19-.28-34.46-4-41.75-7.15l-.59-1,.1-.16,1,.39c13,4.64,27.55,6.49,41.35,6.83a141.46,141.46,0,0,0,24.65-2.28c10.88-2.18,15.29-3.82,16.64-4.57l.34-.19Zm2.51-4.14h0l-1,1.63a106.69,106.69,0,0,1-19.33,4.3,153.54,153.54,0,0,1-23.74,2C95.58,130,79.72,125.24,76,124.06L75.44,123a185.66,185.66,0,0,0,44.7,6.56,164.77,164.77,0,0,0,23.58-2A122.24,122.24,0,0,0,163,123.29a.61.61,0,0,1-.07-.1l1.26-.47" transform="translate(0 0)"/><path id="_239" data-name=" 239" class="cls-7" d="M161.65,126.86c-.42.65-.86,1.29-1.3,1.91a113.31,113.31,0,0,1-15.3,3.93,138.45,138.45,0,0,1-25.13,2.3c-19-.28-34.46-4-41.75-7.15l-.59-1,.1-.16,1,.39c13,4.64,27.55,6.49,41.35,6.83a141.46,141.46,0,0,0,24.65-2.28c10.88-2.18,15.29-3.82,16.64-4.57Zm2.51-4.14h0l-1,1.63a106.69,106.69,0,0,1-19.33,4.3,153.54,153.54,0,0,1-23.74,2C95.58,130,79.72,125.24,76,124.06L75.44,123a185.66,185.66,0,0,0,44.7,6.56,164.77,164.77,0,0,0,23.58-2A122.24,122.24,0,0,0,163,123.29l-.08-.1,1.26-.47Z" transform="translate(0 0)"/><path id="_238" data-name=" 238" class="cls-5" d="M164.41,98.88c.07,14.07-7.13,26.69-12.92,32.26a46.55,46.55,0,0,1-31.79,13.18c-14.18.26-27.56-9-31.15-13-7-7.94-12.72-18-12.9-31.62.87-15.35,6.89-26,15.63-33.38a46.67,46.67,0,0,1,30.06-10.65c11.18.29,24.24,5.78,33.26,16.66,5.91,7.14,8.47,14.88,9.81,26.6ZM119.82,50.71c27.25,0,49.65,22.17,49.65,49.35s-22.4,49.35-49.65,49.35a49.35,49.35,0,0,1,0-98.7h0" transform="translate(0 0)"/><path id="_237" data-name=" 237" class="cls-6" d="M120,50.54a49.51,49.51,0,1,1-49.51,49.51h0A49.6,49.6,0,0,1,120,50.54Zm0,1.09a48.42,48.42,0,1,1-48.42,48.42A48.42,48.42,0,0,1,120,51.63Zm0,3A45.35,45.35,0,1,1,74.65,100,45.35,45.35,0,0,1,120,54.63Zm0,1.08A44.27,44.27,0,1,1,75.74,100,44.27,44.27,0,0,1,120,55.71Z" transform="translate(0 0)"/><polygon id="_236" data-name=" 236" class="cls-5" points="121.56 49.77 121.56 50.31 118.44 50.31 118.44 49.78 117.36 49.78 117.36 150.39 118.44 150.39 118.44 149.92 121.58 149.92 121.58 150.41 122.65 150.41 122.64 49.77 121.56 49.77"/><path id="_235" data-name=" 235" class="cls-6" d="M118.51,50.34h3m-3,99.48h3" transform="translate(0 0)"/><path id="_234" data-name=" 234" class="cls-6" d="M121.56,49.77h1.08V150.4h-1.08Zm-4.21,0h1.09V150.4h-1.08V49.77Z" transform="translate(0 0)"/><path id="_233" data-name=" 233" class="cls-5" d="M70.27,97.94c6.21-5.72,29.11-9.42,49.44-9.32s44.39,4.27,49.62,9.2v4.26C165,98,146.3,93,119.75,93s-45.84,5-49.48,9.21V97.94" transform="translate(0 0)"/><path id="_232" data-name=" 232" class="cls-6" d="M70.26,98.14v3.68m99.23-3.53V102" transform="translate(0 0)"/><path id="_231" data-name=" 231" class="cls-5" d="M120,92.38a171.71,171.71,0,0,1,32,2.86c9.28,1.86,15.82,4.18,18.05,6.79v1.29c-2.7-3.24-11.49-5.62-18.26-7A170.37,170.37,0,0,0,120,93.5a178,178,0,0,0-32.5,2.9c-7.06,1.4-16.47,4.19-17.65,6.93V102c.65-1.9,7.66-4.74,17.49-6.71A178.85,178.85,0,0,1,120,92.38Zm0-4.24A171.71,171.71,0,0,1,152,91c9.29,1.86,15.82,4.18,18.05,6.79v1.28c-2.69-3.24-11.48-5.62-18.26-7A170.28,170.28,0,0,0,120,89.26a175.59,175.59,0,0,0-32.44,2.9c-6.81,1.29-16.61,4.18-17.7,6.92V97.74c.64-1.88,7.79-4.82,17.49-6.71A177,177,0,0,1,120,88.14" transform="translate(0 0)"/><path id="_230" data-name=" 230" class="cls-6" d="M120,92.38a171.71,171.71,0,0,1,32,2.86c9.28,1.86,15.82,4.18,18.05,6.79v1.29c-2.7-3.24-11.49-5.62-18.26-7A170.37,170.37,0,0,0,120,93.5a178,178,0,0,0-32.5,2.9c-7.06,1.4-16.47,4.19-17.65,6.93V102c.65-1.9,7.66-4.74,17.49-6.71A178.85,178.85,0,0,1,120,92.38Zm0-4.24A171.71,171.71,0,0,1,152,91c9.29,1.86,15.82,4.18,18.06,6.78v1.3c-2.69-3.25-11.48-5.63-18.26-7A169.56,169.56,0,0,0,120,89.26a175.59,175.59,0,0,0-32.44,2.9c-6.81,1.29-16.61,4.18-17.7,6.93V97.74c.64-1.88,7.79-4.82,17.49-6.71A177,177,0,0,1,120,88.14Z" transform="translate(0 0)"/><path id="_229" data-name=" 229" class="cls-5" d="M119.74,66.48c18.42-.09,34.5,2.57,41.85,6.34l2.68,4.64c-6.39-3.44-23.73-7-44.5-6.49-16.93.11-35,1.87-44.09,6.71l3.2-5.36c7.45-3.86,25-5.82,40.86-5.84" transform="translate(0 0)"/><line id="_228" data-name=" 228" class="cls-6" x1="162.06" y1="73.57" x2="163.88" y2="76.51"/><path id="_227" data-name=" 227" class="cls-5" d="M120,70.31c10.5,0,20.66.56,28.73,2,7.52,1.4,14.7,3.5,15.72,4.63l.8,1.41c-2.5-1.63-8.7-3.44-16.67-5s-18.16-2-28.6-2c-11.86,0-21.08.58-29,2-8.36,1.57-14.17,3.8-15.6,4.87l.78-1.49c2.78-1.42,7.2-3.13,14.61-4.46,8.18-1.5,17.49-2,29.22-2Zm0-4.24A158,158,0,0,1,147.71,68c6.1,1.19,12.14,3,14.35,4.7l1.16,1.85c-2-2.2-9.42-4.28-16-5.45A175.87,175.87,0,0,0,120,67.16a164.73,164.73,0,0,0-27.88,2c-7.22,1.38-11.88,3-13.85,4.27l1-1.54c2.72-1.43,7.12-2.75,12.66-3.83a167.78,167.78,0,0,1,28.05-2" transform="translate(0 0)"/><path id="_226" data-name=" 226" class="cls-6" d="M120,70.31c10.5,0,20.66.56,28.73,2,7.52,1.4,14.7,3.5,15.72,4.63l.8,1.41c-2.5-1.63-8.7-3.45-16.67-5s-18.15-2-28.6-2c-11.86,0-21.08.58-29,2-8.36,1.57-14.17,3.8-15.6,4.87l.78-1.49c2.79-1.42,7.2-3.13,14.61-4.46,8.18-1.5,17.5-2,29.22-2Zm0-4.24A158,158,0,0,1,147.71,68c6.1,1.19,12.14,3,14.35,4.7l1.16,1.85c-2-2.2-9.42-4.28-16-5.45A175.87,175.87,0,0,0,120,67.16a165.77,165.77,0,0,0-27.88,2c-7.22,1.38-11.88,3-13.85,4.27l1-1.54c2.73-1.43,7.12-2.75,12.66-3.83a167.78,167.78,0,0,1,28.05-2Z" transform="translate(0 0)"/><path id="_225" data-name=" 225" class="cls-5" d="M144.57,120.63a128.34,128.34,0,0,0-24.6-1.87c-30.71.36-40.62,6.3-41.84,8.1l-2.29-3.74c7.82-5.66,24.54-8.84,44.29-8.52a156.59,156.59,0,0,1,26.56,2.29l-2.12,3.74" transform="translate(0 0)"/><line id="_224" data-name=" 224" class="cls-6" x1="76.35" y1="123.64" x2="77.86" y2="126.23"/><path id="_223" data-name=" 223" class="cls-5" d="M119.79,118.23a148.51,148.51,0,0,1,25,2l-.59,1a131.27,131.27,0,0,0-24.4-1.87c-11.33-.09-22.79,1-32.77,3.83-3.15.88-8.36,2.9-8.89,4.58l-.59-1c.17-1,3.32-3,9.21-4.69,11.43-3.28,22.12-3.83,33-3.9Zm.39-4.3c8.85.17,18,.58,26.87,2.34l-.61,1.07c-8-1.59-15.69-2.12-26.21-2.28-11.37,0-23.43.83-34.39,4-3.54,1-9.65,3.26-9.85,5l-.59-1c.14-1.61,5.43-3.7,10.19-5.08,11-3.21,23.13-4,34.59-4.06" transform="translate(0 0)"/><path id="_222" data-name=" 222" class="cls-7" d="M119.79,118.23a148.51,148.51,0,0,1,25,2l-.59,1a131.27,131.27,0,0,0-24.4-1.87c-11.33-.09-22.79,1-32.77,3.83-3.15.88-8.36,2.9-8.89,4.58l-.59-1c.17-1,3.32-3,9.21-4.69,11.43-3.28,22.12-3.83,33-3.9Zm.39-4.3c8.85.17,18,.58,26.87,2.34l-.61,1.07c-8-1.59-15.69-2.12-26.21-2.28-11.37,0-23.43.83-34.39,4-3.54,1-9.65,3.26-9.85,5l-.59-1c.14-1.61,5.43-3.7,10.19-5.08,11-3.21,23.13-4,34.59-4.06Z" transform="translate(0 0)"/><path id="_221" data-name=" 221" class="cls-5" d="M78.45,72.26c15.21-.2,85.45,42.93,85.66,50.86l-4.35,6.67c-2-9.21-73.24-51.18-85-50.39l3.69-7.14" transform="translate(0 0)"/><path id="_220" data-name=" 220" class="cls-6" d="M163.79,123.69l-3.69,5.72M78.33,72.63,74.9,79" transform="translate(0 0)"/><path id="_219" data-name=" 219" class="cls-5" d="M74.33,79.15c2.82-1.91,23.57,7.33,45.27,20.42s42.34,28,40.47,30.73l-.61,1-.28.22c.06,0,.37-.42,0-1.45-.93-3-15.6-14.75-39.95-29.45C95.46,86.44,75.68,77.9,73.7,80.34l.63-1.19Zm90.22,44.46c1.78-3.52-17.46-18-41.32-32.13-24.41-13.84-42-22-45.21-19.55l-.72,1.3c0,.07,0-.09.18-.21a3.13,3.13,0,0,1,2-.48c5.53.08,21.34,7.35,43.5,20.06,9.72,5.66,41,25.75,40.92,31.4,0,.48,0,.58-.14.82l.79-1.21" transform="translate(0 0)"/><path id="_218" data-name=" 218" class="cls-6" d="M74.33,79.15c2.82-1.92,23.57,7.32,45.27,20.41s42.34,28,40.47,30.74l-.61,1-.28.23c.06-.05.37-.43,0-1.46-.93-3-15.6-14.74-39.95-29.44C95.46,86.43,75.68,77.9,73.7,80.34l.63-1.19Zm90.22,44.46c1.78-3.53-17.46-18-41.32-32.14-24.41-13.83-42-22-45.21-19.55l-.72,1.3c0,.08,0-.09.18-.2a3.13,3.13,0,0,1,2-.48c5.53.08,21.34,7.35,43.5,20.06,9.72,5.66,41,25.74,40.92,31.39,0,.49,0,.59-.14.83Z" transform="translate(0 0)"/><path id="_217" data-name=" 217" class="cls-8" d="M90.3,105.51a29.69,29.69,0,0,0,59.37,0h0V65.94L90.3,65.87v39.64" transform="translate(0 0)"/><path id="_216" data-name=" 216" class="cls-9" d="M90.3,105.51a29.68,29.68,0,0,0,59.36,0V65.94l-59.37-.07Z" transform="translate(0 0)"/><path id="_215" data-name=" 215" class="cls-10" d="M91.41,105.56h0a28.5,28.5,0,0,0,57,0V67.19h-57v38.38M137,78.7v27a18.52,18.52,0,0,1-.12,2.11A16.62,16.62,0,0,1,132,117.7a17,17,0,0,1-29-12.07v-27l34,.06" transform="translate(0 0)"/><path id="_214" data-name=" 214" class="cls-11" d="M91.41,105.56h0a28.5,28.5,0,0,0,57,0V67.19h-57v38.37M137,78.69v27a18.52,18.52,0,0,1-.12,2.11,16.62,16.62,0,0,1-4.87,9.86,17,17,0,0,1-28.95-12v-27l34,.06Z" transform="translate(0 0)"/><path id="_213" data-name=" 213" class="cls-12" d="M116.32,101.2h0a4.19,4.19,0,0,0,1.1,2.84,3.57,3.57,0,0,0,5.31,0,4.19,4.19,0,0,0,1.1-2.85V95.82h-7.5v5.38" transform="translate(0 0)"/><path id="_212" data-name=" 212" class="cls-12" d="M116.28,114.09h0a4.2,4.2,0,0,0,1.11,2.84,3.56,3.56,0,0,0,5,.27,3.44,3.44,0,0,0,.27-.27,4.19,4.19,0,0,0,1.1-2.85V108.7h-7.5v5.38" transform="translate(0 0)"/><path id="_211" data-name=" 211" class="cls-12" d="M105.92,101.23h0a4.15,4.15,0,0,0,1.1,2.84,3.56,3.56,0,0,0,5,.27,3.44,3.44,0,0,0,.27-.27,4.15,4.15,0,0,0,1.1-2.84V95.85h-7.5v5.39" transform="translate(0 0)"/><path id="_210" data-name=" 210" class="cls-12" d="M126.69,101.22h0a4.11,4.11,0,0,0,1.11,2.84,3.56,3.56,0,0,0,5,.27l.27-.27a4.19,4.19,0,0,0,1.1-2.85V95.85h-7.5v5.38" transform="translate(0 0)"/><path id="_209" data-name=" 209" class="cls-12" d="M116.32,88.2h0a4.19,4.19,0,0,0,1.1,2.84,3.56,3.56,0,0,0,5,.27,3.44,3.44,0,0,0,.27-.27,4.19,4.19,0,0,0,1.1-2.85V82.82h-7.49V88.2" transform="translate(0 0)"/><polyline id="_208" data-name=" 208" class="cls-5" points="100.77 70.78 100.84 72.52 98.78 72.52 98.84 70.78 100.77 70.78"/><path id="_207" data-name=" 207" class="cls-5" d="M95.09,77.21a3.48,3.48,0,0,1,2-3.42,3.41,3.41,0,0,1,2.1,3.45H95" transform="translate(0 0)"/><path id="_206" data-name=" 206" class="cls-5" d="M93.41,73.84,93.06,77h2.07c0-2.63,2-3.06,2-3a3.05,3.05,0,0,1,2,3h2.07l-.37-3.2H93.32" transform="translate(0 0)"/><path id="_205" data-name=" 205" class="cls-11" d="M93.41,73.84,93.06,77h2.07c0-2.62,2-3.06,2-3a3.08,3.08,0,0,1,2,3h2.07l-.37-3.19Z" transform="translate(0 0)"/><path id="_204" data-name=" 204" class="cls-5" d="M92.92,77h8.48a.4.4,0,0,1,0,.78H92.92a.35.35,0,0,1-.32-.39.38.38,0,0,1,.32-.39" transform="translate(0 0)"/><path id="_203" data-name=" 203" class="cls-11" d="M92.92,77h8.48a.4.4,0,0,1,0,.78H92.92a.35.35,0,0,1-.32-.39A.38.38,0,0,1,92.92,77Z" transform="translate(0 0)"/><path id="_202" data-name=" 202" class="cls-5" d="M96,77a2.18,2.18,0,0,1,1.13-2.12A2.23,2.23,0,0,1,98.32,77H96" transform="translate(0 0)"/><path id="_201" data-name=" 201" class="cls-11" d="M96,77a2.18,2.18,0,0,1,1.13-2.12A2.23,2.23,0,0,1,98.32,77H96" transform="translate(0 0)"/><path id="_200" data-name=" 200" class="cls-5" d="M93.11,72.53h8.12a.33.33,0,0,1,.31.35h0a.33.33,0,0,1-.31.35H93.11a.33.33,0,0,1-.32-.34h0a.34.34,0,0,1,.32-.35" transform="translate(0 0)"/><path id="_199" data-name=" 199" class="cls-11" d="M93.11,72.52h8.12a.36.36,0,0,1,.3.41.37.37,0,0,1-.3.3H93.11a.36.36,0,0,1-.3-.41A.37.37,0,0,1,93.11,72.52Z" transform="translate(0 0)"/><path id="_198" data-name=" 198" class="cls-5" d="M93.27,73.23H101a.33.33,0,0,1,.3.36h0a.33.33,0,0,1-.3.35H93.27a.33.33,0,0,1-.29-.35.33.33,0,0,1,.29-.36" transform="translate(0 0)"/><path id="_197" data-name=" 197" class="cls-11" d="M93.27,73.23H101a.33.33,0,0,1,.3.36h0a.33.33,0,0,1-.3.35H93.27a.33.33,0,0,1-.29-.35A.33.33,0,0,1,93.27,73.23Z" transform="translate(0 0)"/><path id="_196" data-name=" 196" class="cls-5" d="M95.82,67.94h.59v.44h.44v-.45h.62v.45h.44v-.45h.61v1a.26.26,0,0,1-.26.26H96.09a.28.28,0,0,1-.27-.27v-1" transform="translate(0 0)"/><path id="_195" data-name=" 195" class="cls-11" d="M95.79,67.94h.61v.44h.45v-.45h.62v.45h.45v-.45h.63v1a.27.27,0,0,1-.27.26H96.07a.28.28,0,0,1-.28-.27v-1Z" transform="translate(0 0)"/><polyline id="_194" data-name=" 194" class="cls-5" points="98.1 69.28 98.23 72.51 96.08 72.5 96.23 69.28 98.1 69.28"/><polyline id="_193" data-name=" 193" class="cls-11" points="98.1 69.28 98.23 72.51 96.08 72.5 96.23 69.28 98.1 69.28"/><path id="_192" data-name=" 192" class="cls-5" d="M98.45,69.52h.61V70h.43v-.45h.62V70h.44v-.45h.61v1a.25.25,0,0,1-.24.26H98.74a.29.29,0,0,1-.29-.27v-1" transform="translate(0 0)"/><polygon id="_191" data-name=" 191" class="cls-11" points="100.77 70.78 100.84 72.52 98.78 72.52 98.84 70.78 100.77 70.78 100.77 70.78"/><path id="_190" data-name=" 190" class="cls-11" d="M98.45,69.51h.61V70h.43v-.44h.62V70h.44v-.44h.61v1a.25.25,0,0,1-.24.26H98.74a.29.29,0,0,1-.29-.26Z" transform="translate(0 0)"/><path id="_189" data-name=" 189" class="cls-5" d="M93.15,69.52h.6V70h.44v-.45h.61V70h.44v-.45h.62v1a.26.26,0,0,1-.26.26H93.43a.28.28,0,0,1-.28-.27v-1" transform="translate(0 0)"/><path id="_188" data-name=" 188" class="cls-11" d="M93.15,69.52h.6V70h.44v-.45h.61V70h.44v-.45h.62v1a.26.26,0,0,1-.26.26H93.43a.28.28,0,0,1-.28-.27v-1Z" transform="translate(0 0)"/><polyline id="_187" data-name=" 187" class="cls-5" points="95.47 70.78 95.53 72.52 93.47 72.52 93.53 70.78 95.47 70.78"/><polygon id="_186" data-name=" 186" class="cls-11" points="95.47 70.78 95.53 72.52 93.47 72.52 93.53 70.78 95.47 70.78 95.47 70.78 95.47 70.78"/><path id="_185" data-name=" 185" class="cls-13" d="M97,70.3a.21.21,0,0,1,.17-.26.22.22,0,0,1,.26.17.14.14,0,0,1,0,.09v.77H97V70.3" transform="translate(0 0)"/><path id="_184" data-name=" 184" class="cls-13" d="M99.6,71.42a.21.21,0,1,1,.42,0h0V72H99.6v-.59" transform="translate(0 0)"/><path id="_183" data-name=" 183" class="cls-13" d="M94.28,71.42a.21.21,0,0,1,.42,0h0V72h-.42v-.59" transform="translate(0 0)"/><polyline id="_182" data-name=" 182" class="cls-5" points="123.63 70.78 123.7 72.52 121.63 72.52 121.69 70.78 123.63 70.78"/><path id="_181" data-name=" 181" class="cls-5" d="M118,77.21a3.49,3.49,0,0,1,2-3.42,3.41,3.41,0,0,1,2.11,3.45H118" transform="translate(0 0)"/><path id="_180" data-name=" 180" class="cls-5" d="M116.26,73.84,115.92,77H118c0-2.63,2-3.06,2-3a3,3,0,0,1,2,3h2.08l-.38-3.2h-7.51" transform="translate(0 0)"/><path id="_179" data-name=" 179" class="cls-11" d="M116.26,73.84,115.92,77H118c0-2.62,2-3.06,2-3a3.05,3.05,0,0,1,2,3h2.08l-.38-3.19Z" transform="translate(0 0)"/><path id="_178" data-name=" 178" class="cls-5" d="M115.78,77h8.48a.38.38,0,0,1,.32.39.35.35,0,0,1-.32.39h-8.48a.4.4,0,0,1,0-.78" transform="translate(0 0)"/><path id="_177" data-name=" 177" class="cls-11" d="M115.78,77h8.48a.38.38,0,0,1,.32.39.35.35,0,0,1-.32.39h-8.48a.4.4,0,0,1,0-.78Z" transform="translate(0 0)"/><path id="_176" data-name=" 176" class="cls-5" d="M118.86,77A2.16,2.16,0,0,1,120,74.89,2.2,2.2,0,0,1,121.18,77h-2.32" transform="translate(0 0)"/><path id="_175" data-name=" 175" class="cls-11" d="M118.86,77A2.16,2.16,0,0,1,120,74.89,2.2,2.2,0,0,1,121.18,77h-2.32" transform="translate(0 0)"/><path id="_174" data-name=" 174" class="cls-5" d="M116,72.53h8.12a.34.34,0,0,1,.32.35.33.33,0,0,1-.31.35H116a.33.33,0,0,1-.31-.35h0a.33.33,0,0,1,.31-.35h0" transform="translate(0 0)"/><path id="_173" data-name=" 173" class="cls-11" d="M116,72.52h8.12a.36.36,0,0,1,.3.41.37.37,0,0,1-.3.3H116a.36.36,0,0,1-.3-.41A.37.37,0,0,1,116,72.52Z" transform="translate(0 0)"/><path id="_172" data-name=" 172" class="cls-5" d="M116.13,73.23h7.77a.36.36,0,0,1,.3.41.37.37,0,0,1-.3.3h-7.77a.36.36,0,0,1-.3-.41.37.37,0,0,1,.3-.3" transform="translate(0 0)"/><path id="_171" data-name=" 171" class="cls-11" d="M116.13,73.23h7.77a.36.36,0,0,1,.3.41.37.37,0,0,1-.3.3h-7.77a.36.36,0,0,1-.3-.41A.37.37,0,0,1,116.13,73.23Z" transform="translate(0 0)"/><path id="_170" data-name=" 170" class="cls-5" d="M118.67,67.94h.6v.44h.44v-.45h.61v.45h.44v-.45h.62v1a.27.27,0,0,1-.27.26H119a.28.28,0,0,1-.28-.27v-1" transform="translate(0 0)"/><path id="_169" data-name=" 169" class="cls-11" d="M118.64,67.94h.62v.44h.44v-.45h.63v.45h.45v-.45h.63v1a.27.27,0,0,1-.28.26h-2.2a.29.29,0,0,1-.29-.27v-1Z" transform="translate(0 0)"/><polyline id="_168" data-name=" 168" class="cls-5" points="120.95 69.28 121.09 72.51 118.94 72.5 119.08 69.28 120.95 69.28"/><polyline id="_167" data-name=" 167" class="cls-11" points="120.95 69.28 121.09 72.51 118.94 72.5 119.08 69.28 120.95 69.28"/><path id="_166" data-name=" 166" class="cls-5" d="M121.31,69.52h.6V70h.44v-.45H123V70h.44v-.45H124v1a.26.26,0,0,1-.26.26h-2.17a.28.28,0,0,1-.28-.27v-1" transform="translate(0 0)"/><polygon id="_165" data-name=" 165" class="cls-11" points="123.63 70.78 123.7 72.52 121.63 72.52 121.69 70.78 123.63 70.78 123.63 70.78 123.63 70.78"/><path id="_164" data-name=" 164" class="cls-11" d="M121.31,69.51h.6V70h.44v-.44H123V70h.44v-.44H124v1a.26.26,0,0,1-.26.26h-2.17a.28.28,0,0,1-.28-.26Z" transform="translate(0 0)"/><path id="_163" data-name=" 163" class="cls-5" d="M116,69.52h.6V70H117v-.45h.61V70h.44v-.45h.62v1a.25.25,0,0,1-.24.26h-2.18a.28.28,0,0,1-.28-.27v-1" transform="translate(0 0)"/><path id="_162" data-name=" 162" class="cls-11" d="M116,69.52h.6V70H117v-.45h.61V70h.44v-.45h.62v1a.25.25,0,0,1-.24.26h-2.18a.28.28,0,0,1-.28-.27v-1Z" transform="translate(0 0)"/><polyline id="_161" data-name=" 161" class="cls-5" points="118.33 70.78 118.39 72.52 116.33 72.52 116.39 70.78 118.33 70.78"/><polygon id="_160" data-name=" 160" class="cls-11" points="118.33 70.78 118.39 72.52 116.33 72.52 116.39 70.78 118.33 70.78 118.33 70.78"/><path id="_159" data-name=" 159" class="cls-13" d="M119.81,70.3A.21.21,0,0,1,120,70a.22.22,0,0,1,.26.17.14.14,0,0,1,0,.09v.77h-.43V70.3" transform="translate(0 0)"/><path id="_158" data-name=" 158" class="cls-13" d="M122.46,71.42a.21.21,0,1,1,.42,0h0V72h-.42v-.59" transform="translate(0 0)"/><path id="_157" data-name=" 157" class="cls-13" d="M117.14,71.42a.21.21,0,1,1,.42,0h0V72h-.42v-.59" transform="translate(0 0)"/><polyline id="_156" data-name=" 156" class="cls-5" points="146.23 70.78 146.3 72.52 144.24 72.52 144.29 70.78 146.23 70.78"/><path id="_155" data-name=" 155" class="cls-5" d="M140.55,77.21a3.49,3.49,0,0,1,2-3.42,3.41,3.41,0,0,1,2.11,3.45h-4.15" transform="translate(0 0)"/><path id="_154" data-name=" 154" class="cls-5" d="M138.86,73.84,138.52,77h2.07c0-2.63,2-3.06,2-3a3,3,0,0,1,2,3h2.08l-.38-3.2h-7.51" transform="translate(0 0)"/><path id="_153" data-name=" 153" class="cls-11" d="M138.86,73.84,138.52,77h2.07c0-2.62,2-3.06,2-3a3.05,3.05,0,0,1,2,3h2.08l-.38-3.19Z" transform="translate(0 0)"/><path id="_152" data-name=" 152" class="cls-5" d="M138.38,77h8.48a.4.4,0,0,1,0,.78h-8.48a.35.35,0,0,1-.32-.39.38.38,0,0,1,.32-.39" transform="translate(0 0)"/><path id="_151" data-name=" 151" class="cls-11" d="M138.38,77h8.48a.4.4,0,0,1,0,.78h-8.48a.35.35,0,0,1-.32-.39A.38.38,0,0,1,138.38,77Z" transform="translate(0 0)"/><path id="_150" data-name=" 150" class="cls-5" d="M141.46,77a2.18,2.18,0,0,1,1.14-2.12A2.22,2.22,0,0,1,143.78,77h-2.32" transform="translate(0 0)"/><path id="_149" data-name=" 149" class="cls-11" d="M141.46,77a2.18,2.18,0,0,1,1.14-2.12A2.22,2.22,0,0,1,143.78,77h-2.32" transform="translate(0 0)"/><path id="_148" data-name=" 148" class="cls-5" d="M138.56,72.53h8.13a.33.33,0,0,1,.31.35h0a.33.33,0,0,1-.31.35h-8.13a.33.33,0,0,1-.31-.35h0a.33.33,0,0,1,.31-.35h0" transform="translate(0 0)"/><path id="_147" data-name=" 147" class="cls-11" d="M138.56,72.52h8.13a.36.36,0,0,1,.3.41.37.37,0,0,1-.3.3h-8.13a.36.36,0,0,1-.3-.41A.37.37,0,0,1,138.56,72.52Z" transform="translate(0 0)"/><path id="_146" data-name=" 146" class="cls-5" d="M138.74,73.23h7.76a.33.33,0,0,1,.3.36h0a.33.33,0,0,1-.3.35h-7.76a.36.36,0,0,1,0-.71h0" transform="translate(0 0)"/><path id="_145" data-name=" 145" class="cls-11" d="M138.74,73.23h7.76a.33.33,0,0,1,.3.36h0a.33.33,0,0,1-.3.35h-7.76a.36.36,0,0,1,0-.71Z" transform="translate(0 0)"/><path id="_144" data-name=" 144" class="cls-5" d="M141.27,67.94h.61v.44h.43v-.45h.62v.45h.44v-.45H144v1a.26.26,0,0,1-.26.26h-2.16a.29.29,0,0,1-.29-.27v-1" transform="translate(0 0)"/><path id="_143" data-name=" 143" class="cls-11" d="M141.24,67.94h.62v.44h.44v-.45h.63v.45h.45v-.45H144v1a.27.27,0,0,1-.27.26h-2.21a.29.29,0,0,1-.29-.27v-1Z" transform="translate(0 0)"/><polyline id="_142" data-name=" 142" class="cls-5" points="143.56 69.28 143.69 72.51 141.54 72.5 141.68 69.28 143.56 69.28"/><polyline id="_141" data-name=" 141" class="cls-11" points="143.56 69.28 143.69 72.51 141.54 72.5 141.68 69.28 143.56 69.28"/><path id="_140" data-name=" 140" class="cls-5" d="M143.91,69.52h.6V70H145v-.45h.62V70H146v-.45h.61v1a.25.25,0,0,1-.24.26h-2.19a.28.28,0,0,1-.28-.27v-1" transform="translate(0 0)"/><polygon id="_139" data-name=" 139" class="cls-11" points="146.23 70.78 146.3 72.52 144.24 72.52 144.29 70.78 146.24 70.78 146.23 70.78 146.23 70.78"/><path id="_138" data-name=" 138" class="cls-11" d="M143.91,69.51h.6V70H145v-.44h.62V70H146v-.44h.61v1a.25.25,0,0,1-.24.26h-2.19a.28.28,0,0,1-.28-.26Z" transform="translate(0 0)"/><path id="_137" data-name=" 137" class="cls-5" d="M138.61,69.52h.6V70h.44v-.45h.61V70h.44v-.45h.62v1a.26.26,0,0,1-.26.26h-2.17a.28.28,0,0,1-.28-.27v-1" transform="translate(0 0)"/><path id="_136" data-name=" 136" class="cls-11" d="M138.61,69.52h.6V70h.44v-.45h.61V70h.44v-.45h.62v1a.26.26,0,0,1-.26.26h-2.17a.28.28,0,0,1-.28-.27v-1Z" transform="translate(0 0)"/><polyline id="_135" data-name=" 135" class="cls-5" points="140.93 70.78 141 72.52 138.93 72.52 138.99 70.78 140.93 70.78"/><polygon id="_134" data-name=" 134" class="cls-11" points="140.93 70.78 141 72.52 138.93 72.52 138.99 70.78 140.93 70.78 140.93 70.78"/><path id="_133" data-name=" 133" class="cls-13" d="M142.41,70.3a.21.21,0,0,1,.17-.26.22.22,0,0,1,.26.17.14.14,0,0,1,0,.09v.77h-.43V70.3" transform="translate(0 0)"/><path id="_132" data-name=" 132" class="cls-13" d="M145.07,71.42a.21.21,0,0,1,.16-.25.21.21,0,0,1,.25.16.14.14,0,0,1,0,.09V72h-.41v-.59" transform="translate(0 0)"/><path id="_131" data-name=" 131" class="cls-13" d="M139.74,71.42a.21.21,0,1,1,.42,0h0V72h-.42v-.59" transform="translate(0 0)"/><polyline id="_130" data-name=" 130" class="cls-5" points="100.77 93.94 100.84 95.68 98.78 95.68 98.84 93.94 100.77 93.94"/><path id="_129" data-name=" 129" class="cls-5" d="M95.09,100.38a3.46,3.46,0,0,1,2-3.43,3.44,3.44,0,0,1,2.1,3.45H95" transform="translate(0 0)"/><path id="_128" data-name=" 128" class="cls-5" d="M93.41,97l-.35,3.17h2.07a2.83,2.83,0,0,1,2-3,3,3,0,0,1,2,3h2.07l-.37-3.2H93.32" transform="translate(0 0)"/><path id="_127" data-name=" 127" class="cls-11" d="M93.41,97l-.35,3.18h2.07a2.84,2.84,0,0,1,2-3.05,3.09,3.09,0,0,1,2,3.05h2.07l-.37-3.2Z" transform="translate(0 0)"/><path id="_126" data-name=" 126" class="cls-5" d="M92.92,100.19h8.48a.4.4,0,0,1,0,.78H92.92a.35.35,0,0,1-.32-.39.38.38,0,0,1,.32-.39" transform="translate(0 0)"/><path id="_125" data-name=" 125" class="cls-11" d="M92.92,100.19h8.48a.4.4,0,0,1,0,.78H92.92a.35.35,0,0,1-.32-.39A.38.38,0,0,1,92.92,100.19Z" transform="translate(0 0)"/><path id="_124" data-name=" 124" class="cls-5" d="M96,100.18a2.2,2.2,0,0,1,1.13-2.13,2.22,2.22,0,0,1,1.18,2.13H96" transform="translate(0 0)"/><path id="_123" data-name=" 123" class="cls-11" d="M96,100.18a2.2,2.2,0,0,1,1.13-2.13,2.23,2.23,0,0,1,1.18,2.13H96" transform="translate(0 0)"/><path id="_122" data-name=" 122" class="cls-5" d="M93.11,95.69h8.12a.33.33,0,0,1,.31.35h0a.33.33,0,0,1-.31.35H93.11a.33.33,0,0,1-.32-.34h0a.34.34,0,0,1,.32-.35" transform="translate(0 0)"/><path id="_121" data-name=" 121" class="cls-11" d="M93.11,95.69h8.12a.35.35,0,0,1,0,.7H93.11a.35.35,0,0,1,0-.7Z" transform="translate(0 0)"/><path id="_120" data-name=" 120" class="cls-5" d="M93.27,96.39H101a.33.33,0,0,1,.3.36h0a.33.33,0,0,1-.3.35H93.27a.33.33,0,0,1-.29-.35.33.33,0,0,1,.29-.36" transform="translate(0 0)"/><path id="_119" data-name=" 119" class="cls-11" d="M93.27,96.39H101a.33.33,0,0,1,.3.36h0a.33.33,0,0,1-.3.35H93.27a.33.33,0,0,1-.29-.35A.33.33,0,0,1,93.27,96.39Z" transform="translate(0 0)"/><path id="_118" data-name=" 118" class="cls-5" d="M95.82,91.1h.59v.44h.44v-.45h.62v.45h.44v-.45h.61v1a.26.26,0,0,1-.26.26H96.09a.28.28,0,0,1-.27-.27v-1" transform="translate(0 0)"/><path id="_117" data-name=" 117" class="cls-11" d="M95.79,91.1h.61v.44h.45v-.45h.62v.45h.45v-.45h.63v1a.26.26,0,0,1-.26.26H96.07a.28.28,0,0,1-.28-.26v-1Z" transform="translate(0 0)"/><polyline id="_116" data-name=" 116" class="cls-5" points="98.1 92.44 98.23 95.67 96.08 95.66 96.23 92.44 98.1 92.45"/><polyline id="_115" data-name=" 115" class="cls-11" points="98.1 92.44 98.23 95.67 96.08 95.66 96.23 92.44 98.1 92.44"/><path id="_114" data-name=" 114" class="cls-5" d="M98.45,92.68h.61v.44h.43v-.45h.62v.45h.44v-.45h.61v1a.25.25,0,0,1-.24.26H98.74a.29.29,0,0,1-.29-.27v-1" transform="translate(0 0)"/><polygon id="_113" data-name=" 113" class="cls-11" points="100.77 93.94 100.84 95.68 98.78 95.68 98.84 93.94 100.77 93.94"/><path id="_112" data-name=" 112" class="cls-11" d="M98.45,92.68h.61v.43h.43v-.44h.62v.44h.44v-.44h.61v1a.25.25,0,0,1-.24.26H98.74a.28.28,0,0,1-.29-.26Z" transform="translate(0 0)"/><path id="_111" data-name=" 111" class="cls-5" d="M93.15,92.68h.6v.44h.44v-.45h.61v.45h.44v-.45h.62v1a.26.26,0,0,1-.26.26H93.43a.28.28,0,0,1-.28-.27v-1" transform="translate(0 0)"/><path id="_110" data-name=" 110" class="cls-11" d="M93.15,92.68h.6v.44h.44v-.45h.61v.45h.44v-.45h.62v1a.26.26,0,0,1-.26.26H93.43a.28.28,0,0,1-.28-.27Z" transform="translate(0 0)"/><polyline id="_109" data-name=" 109" class="cls-5" points="95.47 93.94 95.53 95.68 93.47 95.68 93.53 93.94 95.47 93.94"/><polygon id="_108" data-name=" 108" class="cls-11" points="95.47 93.94 95.53 95.68 93.47 95.68 93.53 93.94 95.47 93.94 95.47 93.94 95.47 93.94"/><path id="_107" data-name=" 107" class="cls-13" d="M97,93.46a.21.21,0,0,1,.17-.26.22.22,0,0,1,.26.17.14.14,0,0,1,0,.09v.77H97v-.77" transform="translate(0 0)"/><path id="_106" data-name=" 106" class="cls-13" d="M99.6,94.58a.21.21,0,1,1,.42,0h0v.59H99.6v-.59" transform="translate(0 0)"/><path id="_105" data-name=" 105" class="cls-13" d="M94.28,94.58a.21.21,0,0,1,.42,0h0v.59h-.42v-.59" transform="translate(0 0)"/><polyline id="_104" data-name=" 104" class="cls-5" points="141.43 121.06 140.25 122.34 138.79 120.88 140.06 119.69 141.43 121.06"/><path id="_103" data-name=" 103" class="cls-5" d="M132.86,121.59a3.5,3.5,0,0,1,3.87-1,3.47,3.47,0,0,1-.95,3.94l-2.92-3" transform="translate(0 0)"/><path id="_102" data-name=" 102" class="cls-5" d="M134.06,118l-2.49,2,1.46,1.47c1.87-1.84,3.57-.76,3.6-.72a3.07,3.07,0,0,1-.71,3.61l1.46,1.47,2-2.53-5.32-5.3" transform="translate(0 0)"/><path id="_101" data-name=" 101" class="cls-11" d="M134.05,118l-2.48,2,1.46,1.47c1.87-1.85,3.57-.77,3.59-.72a3,3,0,0,1-.71,3.6l1.47,1.47,2-2.53-5.33-5.3Z" transform="translate(0 0)"/><path id="_100" data-name=" 100" class="cls-5" d="M131.46,119.93l6,6a.36.36,0,0,1,0,.51h0a.35.35,0,0,1-.49,0h0l-6-6a.35.35,0,0,1,0-.49h0a.36.36,0,0,1,.51,0h0" transform="translate(0 0)"/><path id="_99" data-name=" 99" class="cls-11" d="M131.46,119.93l6,6a.36.36,0,0,1,0,.51h0a.35.35,0,0,1-.49,0h0l-6-6a.35.35,0,0,1,0-.49h0a.36.36,0,0,1,.51,0h0Z" transform="translate(0 0)"/><path id="_98" data-name=" 98" class="cls-5" d="M133.65,122.1a2.14,2.14,0,0,1,2.3-.7,2.22,2.22,0,0,1-.66,2.34l-1.64-1.64" transform="translate(0 0)"/><path id="_97" data-name=" 97" class="cls-11" d="M133.65,122.1a2.14,2.14,0,0,1,2.3-.7,2.22,2.22,0,0,1-.66,2.34l-1.64-1.64" transform="translate(0 0)"/><path id="_96" data-name=" 96" class="cls-5" d="M134.77,116.88l5.74,5.74a.35.35,0,1,1-.5.49l-5.74-5.74a.35.35,0,1,1,.5-.49" transform="translate(0 0)"/><path id="_95" data-name=" 95" class="cls-11" d="M134.77,116.87l5.75,5.74a.33.33,0,1,1-.47.47h0l-5.75-5.74a.36.36,0,0,1,.1-.5.36.36,0,0,1,.4,0Z" transform="translate(0 0)"/><path id="_94" data-name=" 94" class="cls-5" d="M134.39,117.49l5.49,5.5a.35.35,0,0,1-.07.49.36.36,0,0,1-.42,0l-5.5-5.49a.33.33,0,0,1,.46-.46" transform="translate(0 0)"/><path id="_93" data-name=" 93" class="cls-11" d="M134.39,117.49l5.49,5.5a.35.35,0,0,1-.07.49.36.36,0,0,1-.42,0l-5.5-5.49a.33.33,0,0,1,.46-.46Z" transform="translate(0 0)"/><path id="_92" data-name=" 92" class="cls-5" d="M139.93,115.54l.42.43-.3.31.31.31.31-.32.44.44-.32.31.31.31.32-.31.43.43-.71.71a.27.27,0,0,1-.37,0h0l-1.53-1.53a.28.28,0,0,1,0-.38l.7-.71" transform="translate(0 0)"/><path id="_91" data-name=" 91" class="cls-11" d="M139.91,115.53l.43.43-.31.31.32.31.32-.31.44.44-.31.32.31.31.32-.31.44.45-.71.71a.28.28,0,0,1-.38,0l-1.56-1.56a.27.27,0,0,1,0-.39l.7-.71Z" transform="translate(0 0)"/><polyline id="_90" data-name=" 90" class="cls-5" points="140.59 118.11 138.41 120.49 136.89 118.96 139.28 116.78 140.59 118.11"/><polyline id="_89" data-name=" 89" class="cls-11" points="140.59 118.11 138.41 120.49 136.89 118.96 139.28 116.78 140.59 118.11"/><path id="_88" data-name=" 88" class="cls-5" d="M140.68,118.53l.42.42-.3.31.31.31.31-.31.43.43-.31.32.31.31.32-.32.43.44-.71.71a.28.28,0,0,1-.38,0L140,119.62a.27.27,0,0,1,0-.39l.7-.7" transform="translate(0 0)"/><polygon id="_87" data-name=" 87" class="cls-11" points="141.43 121.06 140.25 122.34 138.79 120.88 140.06 119.69 141.43 121.06 141.43 121.06"/><path id="_86" data-name=" 86" class="cls-11" d="M140.68,118.53l.43.42-.31.31.31.31.31-.32.44.44-.32.31.31.31.32-.31.43.43-.71.72a.27.27,0,0,1-.37,0h0L140,119.61a.28.28,0,0,1,0-.38Z" transform="translate(0 0)"/><path id="_85" data-name=" 85" class="cls-5" d="M136.93,114.78l.42.42-.31.31.31.31.32-.31.43.43-.31.31.31.32.32-.32.43.44-.71.71a.28.28,0,0,1-.38,0l-1.52-1.53a.27.27,0,0,1,0-.37h0l.7-.7" transform="translate(0 0)"/><path id="_84" data-name=" 84" class="cls-11" d="M136.93,114.78l.42.42-.31.31.31.31.32-.31.43.43-.31.32.31.31.31-.32.44.44-.71.71a.28.28,0,0,1-.38,0l-1.52-1.52a.27.27,0,0,1,0-.39Z" transform="translate(0 0)"/><polyline id="_83" data-name=" 83" class="cls-5" points="137.68 117.31 136.5 118.59 135.04 117.13 136.31 115.94 137.68 117.31"/><polygon id="_82" data-name=" 82" class="cls-11" points="137.68 117.31 136.5 118.59 135.04 117.13 136.31 115.94 137.68 117.31"/><path id="_81" data-name=" 81" class="cls-13" d="M139.06,118a.22.22,0,0,1,.3-.07.22.22,0,0,1,.07.31l-.06.06-.55.55-.3-.31.54-.54" transform="translate(0 0)"/><path id="_80" data-name=" 80" class="cls-13" d="M140.15,120.69a.21.21,0,0,1,.35.23.17.17,0,0,1-.06.06l-.42.42-.29-.29.42-.42" transform="translate(0 0)"/><path id="_79" data-name=" 79" class="cls-13" d="M136.39,116.92a.22.22,0,0,1,.3,0,.21.21,0,0,1,0,.3l0,0-.42.42-.29-.3.42-.42" transform="translate(0 0)"/><polyline id="_78" data-name=" 78" class="cls-5" points="146.2 93.94 146.26 95.68 144.2 95.68 144.26 93.94 146.2 93.94"/><path id="_77" data-name=" 77" class="cls-5" d="M140.52,100.38a3.48,3.48,0,0,1,2-3.43,3.45,3.45,0,0,1,2.11,3.45h-4.15" transform="translate(0 0)"/><path id="_76" data-name=" 76" class="cls-5" d="M138.83,97l-.34,3.17h2.07a2.83,2.83,0,0,1,2-3,3,3,0,0,1,2,3h2.08l-.38-3.2h-7.51" transform="translate(0 0)"/><path id="_75" data-name=" 75" class="cls-11" d="M138.83,97l-.34,3.18h2.07a2.84,2.84,0,0,1,2-3.05,3,3,0,0,1,2,3.05h2.08l-.38-3.2h-7.51Z" transform="translate(0 0)"/><path id="_74" data-name=" 74" class="cls-5" d="M138.35,100.19h8.47a.37.37,0,0,1,.33.39.36.36,0,0,1-.33.39h-8.47a.36.36,0,0,1-.33-.39h0a.37.37,0,0,1,.33-.39" transform="translate(0 0)"/><path id="_73" data-name=" 73" class="cls-11" d="M138.35,100.19h8.47a.37.37,0,0,1,.33.39.36.36,0,0,1-.33.39h-8.47a.36.36,0,0,1-.33-.39h0A.37.37,0,0,1,138.35,100.19Z" transform="translate(0 0)"/><path id="_72" data-name=" 72" class="cls-5" d="M141.43,100.18a2.2,2.2,0,0,1,1.14-2.13,2.22,2.22,0,0,1,1.18,2.13h-2.32" transform="translate(0 0)"/><path id="_71" data-name=" 71" class="cls-11" d="M141.43,100.18a2.2,2.2,0,0,1,1.14-2.13,2.23,2.23,0,0,1,1.18,2.13h-2.32" transform="translate(0 0)"/><path id="_70" data-name=" 70" class="cls-5" d="M138.53,95.69h8.12A.33.33,0,0,1,147,96h0a.33.33,0,0,1-.31.35h-8.12a.33.33,0,0,1-.31-.35h0a.33.33,0,0,1,.31-.35h0" transform="translate(0 0)"/><path id="_69" data-name=" 69" class="cls-11" d="M138.53,95.69h8.12a.35.35,0,0,1,0,.7h-8.12a.35.35,0,0,1,0-.7Z" transform="translate(0 0)"/><path id="_68" data-name=" 68" class="cls-5" d="M138.7,96.4h7.77a.35.35,0,0,1,0,.7H138.7a.35.35,0,0,1,0-.7" transform="translate(0 0)"/><path id="_67" data-name=" 67" class="cls-11" d="M138.7,96.4h7.77a.35.35,0,0,1,0,.7H138.7a.35.35,0,0,1,0-.7Z" transform="translate(0 0)"/><path id="_66" data-name=" 66" class="cls-5" d="M141.24,91.1h.6v.44h.44v-.45h.61v.45h.44v-.45H144v1a.27.27,0,0,1-.27.26h-2.16a.28.28,0,0,1-.28-.27v-1" transform="translate(0 0)"/><path id="_65" data-name=" 65" class="cls-11" d="M141.21,91.1h.61v.44h.45v-.45h.63v.45h.45v-.45H144v1a.26.26,0,0,1-.26.26h-2.22a.29.29,0,0,1-.29-.26v-1Z" transform="translate(0 0)"/><polyline id="_64" data-name=" 64" class="cls-5" points="143.52 92.45 143.66 95.67 141.51 95.66 141.65 92.44 143.52 92.45"/><polyline id="_63" data-name=" 63" class="cls-11" points="143.52 92.45 143.66 95.67 141.51 95.66 141.65 92.44 143.52 92.45"/><path id="_62" data-name=" 62" class="cls-5" d="M143.88,92.68h.6v.44h.44v-.45h.61v.45H146v-.45h.62v1a.26.26,0,0,1-.26.26h-2.17a.28.28,0,0,1-.28-.27v-1" transform="translate(0 0)"/><polygon id="_61" data-name=" 61" class="cls-11" points="146.2 93.94 146.26 95.68 144.2 95.68 144.26 93.94 146.2 93.94"/><path id="_60" data-name=" 60" class="cls-11" d="M143.88,92.68h.6v.43h.44v-.44h.61v.44H146v-.44h.62v1a.26.26,0,0,1-.26.26h-2.17a.28.28,0,0,1-.28-.26Z" transform="translate(0 0)"/><path id="_59" data-name=" 59" class="cls-5" d="M138.57,92.68h.6v.44h.44v-.45h.62v.45h.44v-.45h.61v1a.25.25,0,0,1-.24.26h-2.19a.28.28,0,0,1-.27-.27v-1" transform="translate(0 0)"/><path id="_58" data-name=" 58" class="cls-11" d="M138.57,92.68h.6v.44h.44v-.45h.62v.45h.44v-.45h.61v1a.25.25,0,0,1-.24.26h-2.19a.28.28,0,0,1-.27-.27Z" transform="translate(0 0)"/><polyline id="_57" data-name=" 57" class="cls-5" points="140.9 93.94 140.96 95.68 138.9 95.68 138.96 93.94 140.9 93.94"/><polygon id="_56" data-name=" 56" class="cls-11" points="140.9 93.94 140.96 95.68 138.9 95.68 138.96 93.94 140.9 93.94"/><path id="_55" data-name=" 55" class="cls-13" d="M142.38,93.46a.21.21,0,0,1,.17-.26.22.22,0,0,1,.26.17.14.14,0,0,1,0,.09v.77h-.43v-.77" transform="translate(0 0)"/><path id="_54" data-name=" 54" class="cls-13" d="M145,94.58a.21.21,0,0,1,.16-.25.21.21,0,0,1,.25.16.14.14,0,0,1,0,.09v.59H145v-.59" transform="translate(0 0)"/><path id="_53" data-name=" 53" class="cls-13" d="M139.71,94.58a.21.21,0,0,1,.16-.25.21.21,0,0,1,.25.16.14.14,0,0,1,0,.09v.59h-.41v-.59" transform="translate(0 0)"/><polyline id="_52" data-name=" 52" class="cls-5" points="103.57 115.92 104.85 117.1 103.39 118.56 102.2 117.29 103.57 115.92"/><path id="_51" data-name=" 51" class="cls-5" d="M104.11,124.49a3.45,3.45,0,0,1-1-3.86,3.41,3.41,0,0,1,3.93.94l-3,2.92" transform="translate(0 0)"/><path id="_50" data-name=" 50" class="cls-5" d="M100.53,123.3l2,2.48,1.47-1.46c-1.84-1.87-.76-3.57-.72-3.6a3.06,3.06,0,0,1,3.6.71l1.47-1.46-2.52-2-5.3,5.33" transform="translate(0 0)"/><path id="_49" data-name=" 49" class="cls-11" d="M100.53,123.3l2,2.48,1.47-1.46c-1.84-1.87-.76-3.57-.72-3.59a3,3,0,0,1,3.6.71l1.47-1.47-2.52-2Z" transform="translate(0 0)"/><path id="_48" data-name=" 48" class="cls-5" d="M102.44,125.89l6-6a.4.4,0,0,1,.56.55l-6,6a.36.36,0,0,1-.51,0,.38.38,0,0,1,0-.51" transform="translate(0 0)"/><path id="_47" data-name=" 47" class="cls-11" d="M102.44,125.89l6-6a.35.35,0,0,1,.49,0h0a.37.37,0,0,1,0,.5l-6,6a.36.36,0,0,1-.51,0,.38.38,0,0,1,0-.51Z" transform="translate(0 0)"/><path id="_46" data-name=" 46" class="cls-5" d="M104.61,123.7a2.2,2.2,0,0,1-.7-2.31,2.24,2.24,0,0,1,2.34.67l-1.64,1.64" transform="translate(0 0)"/><path id="_45" data-name=" 45" class="cls-11" d="M104.61,123.7a2.2,2.2,0,0,1-.7-2.31,2.24,2.24,0,0,1,2.34.67l-1.64,1.64" transform="translate(0 0)"/><path id="_44" data-name=" 44" class="cls-5" d="M99.38,122.58l5.75-5.74a.35.35,0,1,1,.5.49h0l-5.75,5.75a.33.33,0,0,1-.47,0h0a.33.33,0,0,1,0-.47" transform="translate(0 0)"/><path id="_43" data-name=" 43" class="cls-11" d="M99.38,122.58l5.75-5.74a.35.35,0,1,1,.5.49h0l-5.75,5.75a.33.33,0,0,1-.47,0h0a.33.33,0,0,1,0-.47Z" transform="translate(0 0)"/><path id="_42" data-name=" 42" class="cls-5" d="M100,123l5.5-5.49a.36.36,0,0,1,.5.1.36.36,0,0,1,0,.4l-5.5,5.49a.34.34,0,0,1-.46,0,.35.35,0,0,1,0-.47" transform="translate(0 0)"/><path id="_41" data-name=" 41" class="cls-11" d="M100,123l5.5-5.49a.36.36,0,0,1,.5.1.36.36,0,0,1,0,.4l-5.5,5.49a.32.32,0,0,1-.45,0h0a.34.34,0,0,1,0-.46Z" transform="translate(0 0)"/><path id="_40" data-name=" 40" class="cls-5" d="M98.06,117.42l.42-.42.31.3.31-.31-.31-.31.43-.43.32.31.31-.31-.32-.32.44-.43.71.71a.27.27,0,0,1,0,.37h0l-1.52,1.53a.27.27,0,0,1-.38,0h0l-.7-.7" transform="translate(0 0)"/><path id="_39" data-name=" 39" class="cls-11" d="M98,117.44l.43-.43.31.3.32-.31-.32-.32.45-.44.31.32.32-.32-.31-.32.44-.44.71.71a.27.27,0,0,1,0,.37h0l-1.56,1.56a.29.29,0,0,1-.39,0l-.7-.7Z" transform="translate(0 0)"/><polyline id="_38" data-name=" 38" class="cls-5" points="100.63 116.76 103.01 118.94 101.48 120.45 99.3 118.07 100.63 116.76"/><polyline id="_37" data-name=" 37" class="cls-11" points="100.63 116.76 103 118.94 101.48 120.46 99.3 118.08 100.63 116.76"/><path id="_36" data-name=" 36" class="cls-5" d="M101,116.67l.43-.42.31.31.3-.32-.31-.31.44-.43.31.31.31-.31-.31-.31.43-.44.71.71a.27.27,0,0,1,0,.37h0l-1.53,1.53a.27.27,0,0,1-.37,0h0l-.71-.7" transform="translate(0 0)"/><polygon id="_35" data-name=" 35" class="cls-11" points="103.57 115.92 104.85 117.1 103.39 118.56 102.2 117.29 103.57 115.92"/><path id="_34" data-name=" 34" class="cls-11" d="M101,116.66l.42-.42.31.31.31-.31-.31-.32.43-.43.32.32.31-.31-.32-.32.44-.43.71.71a.27.27,0,0,1,0,.37h0l-1.52,1.53a.29.29,0,0,1-.39,0l-.7-.7Z" transform="translate(0 0)"/><path id="_33" data-name=" 33" class="cls-5" d="M97.29,120.42l.43-.43.31.31.31-.31-.32-.31.44-.43.31.31.31-.31-.31-.32.43-.43.71.71a.25.25,0,0,1,0,.35l0,0-1.53,1.53a.28.28,0,0,1-.38,0l-.71-.7" transform="translate(0 0)"/><path id="_32" data-name=" 32" class="cls-11" d="M97.29,120.42l.43-.42.31.31.31-.31-.32-.32.44-.43.31.31.31-.31-.31-.32.43-.43.71.71a.25.25,0,0,1,0,.35l0,0-1.53,1.53a.28.28,0,0,1-.38,0Z" transform="translate(0 0)"/><polyline id="_31" data-name=" 31" class="cls-5" points="99.82 119.67 101.1 120.85 99.64 122.31 98.45 121.04 99.82 119.67"/><polygon id="_30" data-name=" 30" class="cls-11" points="99.82 119.67 101.1 120.85 99.64 122.31 98.45 121.04 99.82 119.67"/><path id="_29" data-name=" 29" class="cls-13" d="M100.53,118.29a.22.22,0,0,1,.28-.34l0,0,.54.55-.3.3-.55-.54" transform="translate(0 0)"/><path id="_28" data-name=" 28" class="cls-13" d="M103.2,117.2a.21.21,0,0,1,.23-.35.17.17,0,0,1,.06.06l.42.42-.29.29-.42-.42" transform="translate(0 0)"/><path id="_27" data-name=" 27" class="cls-13" d="M99.44,121a.21.21,0,0,1,.23-.35.17.17,0,0,1,.06.06l.42.42-.29.29-.42-.42" transform="translate(0 0)"/><path id="_26" data-name=" 26" class="cls-14" d="M122.16,114.1a.75.75,0,1,0,.74.76v0a.75.75,0,0,0-.74-.74" transform="translate(0 0)"/><path id="_25" data-name=" 25" class="cls-14" d="M118,114.11a.74.74,0,1,0,.74.74.74.74,0,0,0-.74-.74h0" transform="translate(0 0)"/><path id="_24" data-name=" 24" class="cls-14" d="M120.08,112a.74.74,0,1,0,.74.74.74.74,0,0,0-.74-.74" transform="translate(0 0)"/><path id="_23" data-name=" 23" class="cls-14" d="M122.16,110a.74.74,0,1,0,.74.74h0a.74.74,0,0,0-.74-.74" transform="translate(0 0)"/><path id="_22" data-name=" 22" class="cls-14" d="M132.57,101.23a.74.74,0,1,0,.74.74.75.75,0,0,0-.74-.74" transform="translate(0 0)"/><path id="_21" data-name=" 21" class="cls-14" d="M128.51,101.24a.74.74,0,1,0,.74.74.74.74,0,0,0-.74-.74h0" transform="translate(0 0)"/><path id="_20" data-name=" 20" class="cls-14" d="M130.49,99.15a.74.74,0,1,0,.74.74.74.74,0,0,0-.74-.74h0" transform="translate(0 0)"/><path id="_19" data-name=" 19" class="cls-14" d="M132.57,97.15a.74.74,0,1,0,.74.74.74.74,0,0,0-.74-.74h0" transform="translate(0 0)"/><path id="_18" data-name=" 18" class="cls-14" d="M128.5,97.15a.74.74,0,1,0,.74.74.74.74,0,0,0-.74-.74h0" transform="translate(0 0)"/><path id="_17" data-name=" 17" class="cls-14" d="M122.19,101.21a.74.74,0,1,0,.74.74h0a.74.74,0,0,0-.74-.74" transform="translate(0 0)"/><path id="_16" data-name=" 16" class="cls-14" d="M118,101.22a.74.74,0,1,0,.74.74.74.74,0,0,0-.74-.74h0" transform="translate(0 0)"/><path id="_15" data-name=" 15" class="cls-14" d="M120.11,99.13a.74.74,0,1,0,.74.74h0a.74.74,0,0,0-.74-.74" transform="translate(0 0)"/><path id="_14" data-name=" 14" class="cls-14" d="M122.2,97.13a.74.74,0,1,0,.74.74h0a.75.75,0,0,0-.74-.74" transform="translate(0 0)"/><path id="_13" data-name=" 13" class="cls-14" d="M118,97.12a.77.77,0,0,0-.75.75.75.75,0,0,0,.75.74.74.74,0,0,0,.74-.74.75.75,0,0,0-.74-.75" transform="translate(0 0)"/><path id="_12" data-name=" 12" class="cls-14" d="M111.79,101.24a.74.74,0,1,0,.74.74h0a.74.74,0,0,0-.74-.74" transform="translate(0 0)"/><path id="_11" data-name=" 11" class="cls-14" d="M107.74,101.24a.79.79,0,1,0,.74.91.48.48,0,0,0,0-.17.74.74,0,0,0-.74-.74" transform="translate(0 0)"/><path id="_10" data-name=" 10" class="cls-14" d="M109.71,99.15a.74.74,0,0,0-.74.74.75.75,0,0,0,.74.75.77.77,0,0,0,.75-.75.75.75,0,0,0-.75-.74" transform="translate(0 0)"/><path id="_9" data-name=" 9" class="cls-14" d="M111.8,97.15a.77.77,0,0,0-.75.75.75.75,0,0,0,.75.74.74.74,0,0,0,.74-.74.75.75,0,0,0-.74-.75" transform="translate(0 0)"/><path id="_8" data-name=" 8" class="cls-14" d="M118,110a.74.74,0,1,0,.74.74A.74.74,0,0,0,118,110h0" transform="translate(0 0)"/><path id="_7" data-name=" 7" class="cls-15" d="M107.72,97.15a.74.74,0,1,0,0,1.48.75.75,0,0,0,.73-.74.74.74,0,0,0-.74-.74h0" transform="translate(0 0)"/><path id="_6" data-name=" 6" class="cls-14" d="M118,84.12a.74.74,0,1,0,.74.74.74.74,0,0,0-.74-.74h0" transform="translate(0 0)"/><path id="_5" data-name=" 5" class="cls-14" d="M122.11,84.12a.74.74,0,1,0,.74.74h0a.75.75,0,0,0-.74-.74" transform="translate(0 0)"/><path id="_4" data-name=" 4" class="cls-14" d="M120,86.12a.74.74,0,1,0,.74.74.74.74,0,0,0-.74-.74h0" transform="translate(0 0)"/><path id="_3" data-name=" 3" class="cls-14" d="M122.1,88.2a.74.74,0,0,0-.74.74.75.75,0,0,0,.74.75.77.77,0,0,0,.75-.75.75.75,0,0,0-.75-.74" transform="translate(0 0)"/><path id="_2" data-name=" 2" class="cls-14" d="M118,88.21a.74.74,0,1,0,.74.74.74.74,0,0,0-.74-.74h0" transform="translate(0 0)"/><path id="_1" data-name=" 1" class="cls-14" d="M107.73,97.15a.74.74,0,1,0,.74.74.74.74,0,0,0-.74-.74h0" transform="translate(0 0)"/></svg>